<?xml version="1.0" encoding="UTF-8"?>
<svg version="1.1" xmlns="http://www.w3.org/2000/svg" width="512" height="512">
  <path
    d="M0 0 C1.46251155 0.04954844 2.9252039 0.09398943 4.3880167 0.13366032 C7.4433197 0.22307017 10.49582702 0.33934767 13.54933548 0.47685623 C17.92575717 0.66727469 22.29891339 0.75837973 26.67892456 0.81246948 C27.72897251 0.82582487 27.72897251 0.82582487 28.80023354 0.83945006 C30.22029947 0.8574622 31.64036669 0.87537278 33.06043518 0.89318264 C36.71443597 0.94448214 40.36790591 1.01980613 44.02146912 1.0955658 C44.76239974 1.11085195 45.50333037 1.12613811 46.26671344 1.14188749 C47.7868013 1.17336779 49.30688676 1.20496462 50.82696986 1.23667407 C54.00887484 1.30263169 57.19082211 1.3664168 60.37277037 1.43024689 C67.87260004 1.58071878 75.37235637 1.73449856 82.87207031 1.890625 C90.56540201 2.05073064 98.25882971 2.2054091 105.95232385 2.35749191 C112.62831002 2.48962759 119.30422823 2.62487004 125.98010069 2.762631 C129.93812264 2.84429067 133.89615825 2.92486723 137.8542614 3.00250053 C141.55568871 3.07524949 145.25701528 3.15191294 148.95830154 3.23150635 C150.94557152 3.27331552 152.93292203 3.31124153 154.92027283 3.34901428 C171.05186388 3.7059545 171.05186388 3.7059545 175.12670898 4.66381836 C177.21362305 7.1262207 177.21362305 7.1262207 178.39233398 10.37475586 C179.08359375 12.15317871 179.08359375 12.15317871 179.78881836 13.9675293 C180.23032227 15.18730469 180.67182617 16.40708008 181.12670898 17.66381836 C182.0482433 19.84807564 182.98051959 22.02783261 183.92358398 24.20288086 C185.45813498 27.86730968 186.97942083 31.53691146 188.48901367 35.21166992 C191.50317169 42.52370995 194.60645109 49.77587746 197.90057373 56.9670105 C199.65724067 60.81620285 201.37503455 64.6821883 203.08972168 68.55023193 C203.943481 70.44987273 204.81472133 72.34175905 205.70373535 74.22515869 C212.76661225 89.22006182 212.76661225 89.22006182 211.22729492 95.09863281 C209.42625969 97.96961674 207.48682948 100.24012739 205.12670898 102.66381836 C204.19674676 103.98110954 203.29231135 105.31708264 202.42358398 106.67553711 C201.57663999 107.90219078 200.72765889 109.12744026 199.87670898 110.35131836 C198.92478483 111.72755043 197.97296497 113.10385463 197.02124023 114.48022461 C196.54251465 115.17132324 196.06378906 115.86242187 195.57055664 116.57446289 C193.68513254 119.30281248 191.81321602 122.04027412 189.94262695 124.77880859 C188.57156277 126.77809507 187.18733255 128.76781001 185.80249023 130.75756836 C184.02324888 133.32367104 182.32359897 135.92166288 180.66967773 138.57006836 C180.26241455 139.1963916 179.85515137 139.82271484 179.43554688 140.46801758 C178.33633619 142.15865757 177.26543273 143.86761038 176.19702148 145.57788086 C172.08727441 150.44260258 165.86560668 152.30553341 160.12670898 154.66381836 C158.33796991 155.41352545 156.54958403 156.16407558 154.76147461 156.9152832 C148.62339595 159.48339432 142.4694664 162.01222679 136.31420898 164.53881836 C134.15720405 165.4265868 132.00030215 166.31460564 129.84350586 167.20288086 C124.60575791 169.35941471 119.366747 171.51285541 114.12670898 173.66381836 C114.0331704 183.76511954 114.31441766 193.81701264 114.78295898 203.90600586 C114.84281206 205.2420121 114.90238201 206.57803106 114.96166992 207.9140625 C115.17994421 212.78913478 115.40363291 217.66396344 115.62670898 222.53881836 C116.12170898 233.47006836 116.61670898 244.40131836 117.12670898 255.66381836 C86.76670898 256.32381836 56.40670898 256.98381836 25.12670898 257.66381836 C26.25006919 248.67693675 26.25006919 248.67693675 27.49023438 244.91503906 C27.76490036 244.06376434 28.03956635 243.21248962 28.32255554 242.3354187 C28.76895134 240.97623825 28.76895134 240.97623825 29.22436523 239.58959961 C38.34761348 210.83421554 44.46962334 182.61450555 48.17671204 152.66848755 C48.28895615 151.77032318 48.40120026 150.87215881 48.5168457 149.94677734 C48.61150116 149.16350571 48.70615662 148.38023407 48.80368042 147.57322693 C49.12670898 145.66381836 49.12670898 145.66381836 50.12670898 143.66381836 C51.44574219 143.71207764 52.76477539 143.76033691 54.1237793 143.81005859 C84.86226636 146.16388756 84.86226636 146.16388756 111.40820312 133.7265625 C112.74544968 132.37374254 114.05569954 130.99351234 115.33276367 129.58374023 C118.04337076 126.68278567 121.14119093 124.40565809 124.31420898 122.03881836 C125.41317867 121.17364077 126.5095303 120.30512758 127.60327148 119.43334961 C132.47366205 115.58689599 137.41743387 111.83567826 142.35595703 108.07739258 C145.9821377 105.31544948 149.58244992 102.53100649 153.12670898 99.66381836 C150.51420103 88.58966018 146.41879405 77.97352133 142.56420898 67.28881836 C141.87179055 65.35795825 141.17973037 63.42696962 140.48803711 61.49584961 C139.8249412 59.64808009 139.16154057 57.80041989 138.49780273 55.95288086 C138.18942978 55.09449615 137.88105682 54.23611145 137.56333923 53.35171509 C136.14751826 49.42809909 134.71348709 45.52254073 133.12670898 41.66381836 C113.6056896 41.53502972 94.08618579 41.70932381 74.57135391 42.21553802 C69.91988991 42.33489945 65.27025212 42.4311789 60.61743164 42.47680664 C56.03469888 42.5224694 51.4565155 42.62581469 46.87582016 42.76874542 C45.15483994 42.81278324 43.43321541 42.83691815 41.71167374 42.83946991 C31.51355072 42.71186978 31.51355072 42.71186978 22.73724365 47.2401123 C19.87253325 50.14227794 17.50058981 53.35039174 15.12670898 56.66381836 C13.46582737 58.72866697 11.76401297 60.75557507 10.06420898 62.78881836 C9.35135742 63.67827148 8.63850586 64.56772461 7.90405273 65.48413086 C6.12670898 67.66381836 6.12670898 67.66381836 4.12670898 69.66381836 C4.46704707 74.47076407 6.18228539 78.60042836 8.10327148 82.96069336 C8.69704612 84.34479738 9.29079539 85.72891227 9.88452148 87.11303711 C10.8218426 89.275592 11.76179626 91.43698076 12.70288086 93.59790039 C13.61359795 95.69529511 14.51500895 97.79650874 15.41577148 99.89819336 C15.84534653 100.87160675 15.84534653 100.87160675 16.28359985 101.86468506 C16.95750683 103.44024056 17.55008483 105.05011754 18.12670898 106.66381836 C17.12670898 108.66381836 17.12670898 108.66381836 14.59022522 109.54971313 C13.46152512 109.84727509 12.33282501 110.14483704 11.16992188 110.45141602 C9.89512466 110.79161774 8.62032745 111.13181946 7.30690002 111.48233032 C5.90445222 111.84775876 4.50193901 112.21293622 3.09936523 112.57788086 C1.67052187 112.95553142 0.24184844 113.33382544 -1.18666077 113.71273804 C-4.18404172 114.50604122 -7.18274969 115.2940338 -10.18261719 116.07788086 C-14.03273075 117.08396062 -17.88035564 118.09917558 -21.72714901 119.11786842 C-25.38829187 120.08694573 -29.05067877 121.05128067 -32.71313477 122.01538086 C-33.41495314 122.20058918 -34.11677151 122.3857975 -34.8398571 122.57661819 C-36.82159615 123.09871426 -38.80419125 123.61741247 -40.78710938 124.13500977 C-41.91660507 124.43098053 -43.04610077 124.72695129 -44.20982361 125.03189087 C-46.87329102 125.66381836 -46.87329102 125.66381836 -48.87329102 125.66381836 C-49.64554575 112.10828305 -50.08122486 98.54806228 -50.43579102 84.97631836 C-50.45793671 84.15759247 -50.4800824 83.33886658 -50.50289917 82.49533081 C-50.63175787 77.68610803 -50.74271593 72.87698522 -50.82897949 68.06680298 C-50.85907552 66.43471535 -50.89281297 64.80269163 -50.92980957 63.17074585 C-50.98238003 60.73095796 -51.01786194 58.29146262 -51.04907227 55.85131836 C-51.06732559 55.12024368 -51.08557892 54.38916901 -51.10438538 53.63594055 C-51.22754121 37.7129221 -35.99847007 23.18621113 -25.41820431 12.39152622 C-23.75974125 10.60517362 -23.75974125 10.60517362 -22.14094639 8.19257259 C-15.71868004 -0.33412351 -10.15930891 -0.61145471 0 0 Z "
    fill="#761817"
    transform="translate(226.873291015625,152.336181640625)"
  />
  <path
    d="M0 0 C-0.63824924 4.37656624 -2.2313121 8.07574753 -4.1875 12 C-4.52338135 12.67627441 -4.8592627 13.35254883 -5.20532227 14.04931641 C-9.92892278 23.20893141 -15.87842507 31.63403877 -21.72827148 40.09912109 C-23.03676199 41.96881533 -23.03676199 41.96881533 -24 44 C-22.73321915 46.81506856 -21.75805508 48.57902475 -19.0234375 50.09765625 C-13.81315546 51.65266291 -8.41643812 51.75682124 -3.01171875 52.12304688 C3.04906332 52.60703739 8.33069641 53.79440077 14 56 C10.97019796 59.27216318 7.41868837 60.87396083 3.4375 62.75 C-6.28534178 67.47436409 -19.57728868 74.11152642 -25 84 C-25.27484189 86.7942259 -25.28908185 88.47334542 -23.92578125 90.95703125 C-18.52297081 97.17091734 -12.09043091 100.9909744 -5 105 C-7.84365669 108.8703451 -10.78863647 111.41300833 -14.6875 114.1875 C-19.45052958 117.95647666 -19.45052958 117.95647666 -21.1875 123.5 C-21.17003033 125.33431518 -21.09888523 127.16826883 -21 129 C-20.99931659 130.47137475 -21.00789786 131.94276965 -21.0234375 133.4140625 C-21.06399057 137.61065163 -21.04381525 141.80347306 -21 146 C-27.78382994 140.65953813 -33.5440273 134.25682594 -38.296875 127.02734375 C-39.92482359 124.62670941 -41.38970209 123.17765242 -44.19238281 122.36181641 C-51.57113584 121.10833057 -58.90811759 120.41455082 -66.375 119.9375 C-67.46554687 119.85951172 -68.55609375 119.78152344 -69.6796875 119.70117188 C-94.42201687 118.04529696 -119.21242094 117.79430659 -144 117.8125 C-144.72659821 117.81261959 -145.45319641 117.81273918 -146.20181274 117.8128624 C-186.4248146 117.68932951 -186.4248146 117.68932951 -226.4375 121.375 C-227.15421875 121.47659424 -227.8709375 121.57818848 -228.609375 121.68286133 C-233.2327498 122.49067794 -236.17849621 124.37528436 -240 127 C-244.55676199 128.47406663 -249.28210717 129.20751735 -254 130 C-254.85303711 130.14356934 -255.70607422 130.28713867 -256.58496094 130.43505859 C-259.36659603 130.89175232 -262.15077033 131.32555701 -264.9375 131.75 C-265.8251001 131.88994385 -266.7127002 132.0298877 -267.62719727 132.17407227 C-272.6458072 132.89710438 -276.98828605 133.16354967 -282 132 C-287.27467196 127.45792137 -288.74093258 120.16022869 -289.2890625 113.47387695 C-289.38305324 110.19993617 -289.42187663 106.93526948 -289.39111328 103.66015625 C-289.375077 101.63472591 -289.39101195 99.6113063 -289.41015625 97.5859375 C-289.36675295 82.82881709 -286.19612727 67.65053966 -275.7421875 56.51953125 C-264.82297373 46.99582238 -251.48875113 44.59509575 -237.52340698 43.50561523 C-168.68834033 37.9631447 -100.27358767 20.85369605 -32.80859375 6.58984375 C-32.04291832 6.42827726 -31.27724289 6.26671078 -30.48836517 6.10024834 C-28.30112576 5.63837672 -26.11419118 5.17510735 -23.92749023 4.71069336 C-23.24867861 4.56654212 -22.56986698 4.42239088 -21.87048531 4.27387142 C-16.40959525 3.10564398 -10.97440274 1.83942503 -5.54579163 0.53004456 C-3 0 -3 0 0 0 Z "
    fill="#283668"
    transform="translate(440,25)"
  />
  <path
    d="M0 0 C1.76030296 0.15935532 1.76030296 0.15935532 3.5561676 0.32192993 C6.01611567 0.54635401 8.47582679 0.77338938 10.93530273 1.00292969 C14.70410407 1.35274108 18.47399478 1.68846578 22.24414062 2.0234375 C24.64200557 2.2439398 27.03979504 2.46526475 29.4375 2.6875 C31.12654701 2.83606949 31.12654701 2.83606949 32.84971619 2.98764038 C33.89503006 3.08759308 34.94034393 3.18754578 36.01733398 3.29052734 C37.39319923 3.4171022 37.39319923 3.4171022 38.79685974 3.54623413 C41.2866005 3.98228859 43.07078101 4.72738383 45.25390625 5.9765625 C40.57351577 11.78670241 34.27517062 14.2793707 26.93994141 15.29785156 C21.70180248 15.83544243 16.49450243 16.04138427 11.23046875 16.1171875 C10.02519531 16.13652344 8.81992187 16.15585937 7.578125 16.17578125 C5.08870948 16.20995485 2.59902373 16.2278888 0.109375 16.23046875 C-6.75702023 16.26360175 -6.75702023 16.26360175 -12.84765625 19.0234375 C-16.91595207 25.35189766 -19.58946176 31.82365884 -21.62109375 39.05078125 C-21.87375 39.94423752 -22.12640625 40.83769379 -22.38671875 41.75822449 C-25.78885958 54.25973675 -28.01785616 67.02943697 -30.37109375 79.76043701 C-31.48362345 85.77885327 -32.6084898 91.794868 -33.74609375 97.80859375 C-34.10973022 99.73857712 -34.10973022 99.73857712 -34.48071289 101.70755005 C-36.28943488 111.1034958 -38.45905643 120.36756188 -41.00585938 129.59126282 C-41.3703418 130.94927254 -41.3703418 130.94927254 -41.7421875 132.3347168 C-41.96060303 133.11550095 -42.17901855 133.8962851 -42.40405273 134.70072937 C-42.80391783 137.36130571 -42.40595387 139.3853054 -41.74609375 141.9765625 C-40.2704258 142.466398 -38.79027272 142.9427217 -37.30859375 143.4140625 C-36.48488281 143.68089844 -35.66117188 143.94773437 -34.8125 144.22265625 C-26.02988954 146.38194774 -17.05391923 146.12461335 -8.0703125 146.109375 C-6.65460697 146.11005048 -5.23890155 146.11102254 -3.82319641 146.11227417 C-0.86722704 146.11374108 2.08871193 146.11163011 5.04467773 146.10693359 C8.79974207 146.10125271 12.55473465 146.10451134 16.30979633 146.11050606 C19.23120139 146.11415247 22.15258998 146.11295426 25.07399559 146.11037827 C26.4568298 146.10971941 27.83966559 146.11050021 29.22249794 146.11285782 C43.28178125 147.13169392 43.28178125 147.13169392 56.2504425 143.61868286 C65.10240079 134.68631839 65.64509381 119.73795646 67.25390625 107.9765625 C67.91390625 107.9765625 68.57390625 107.9765625 69.25390625 107.9765625 C69.40947998 108.52368896 69.56505371 109.07081543 69.7253418 109.63452148 C71.29266907 115.14288601 72.86680316 120.64926642 74.44580078 126.15429688 C74.95381606 127.92851338 75.46023723 129.7031879 75.96435547 131.47851562 C78.77504352 141.52866899 78.77504352 141.52866899 82.44140625 151.2890625 C86.8303685 161.73728032 87.88476171 173.72175472 84.28515625 184.50390625 C80.80534437 192.8475461 74.75351254 198.86693259 68.25390625 204.9765625 C67.26390625 204.6465625 66.27390625 204.3165625 65.25390625 203.9765625 C65.47046875 203.20957031 65.68703125 202.44257813 65.91015625 201.65234375 C67.82192627 194.03181604 68.5794047 186.87887117 68.62890625 179.0390625 C68.64244141 178.1519458 68.65597656 177.2648291 68.66992188 176.35083008 C68.63242294 170.82754989 67.99080021 166.81681016 65.25390625 161.9765625 C53.68247221 155.76227385 38.99092511 156.64809996 26.19140625 156.7265625 C24.93457031 156.72922119 24.93457031 156.72922119 23.65234375 156.73193359 C9.53628082 156.76658405 -4.52219032 157.32365495 -18.60571289 158.26464844 C-25.36656854 158.71472936 -32.12667798 159.10461481 -38.90234375 159.2265625 C-40.66288086 159.26523437 -40.66288086 159.26523437 -42.45898438 159.3046875 C-46.90077412 158.86130029 -50.24768525 157.38839629 -53.50390625 154.3203125 C-70.28437719 131.69064883 -66.28737543 95.4641865 -62.7265625 69.32421875 C-60.53561616 54.59606444 -58.18310423 39.52512049 -51.74609375 25.9765625 C-51.29492188 25.01878906 -50.84375 24.06101562 -50.37890625 23.07421875 C-44.91356647 12.30602226 -37.86769746 4.76664423 -26.93359375 -0.3359375 C-18.20468578 -2.21864314 -8.80648983 -0.81656125 0 0 Z "
    fill="#273567"
    transform="translate(286.74609375,270.0234375)"
  />
  <path
    d="M0 0 C3.33509019 0.83377255 6.04310657 1.91120455 9.1237793 3.37475586 C36.30487308 16.11143772 62.59455282 12.03613811 91.23828125 6.87890625 C93.2212665 6.52294875 95.20433718 6.16746685 97.1875 5.8125 C98.59890259 5.55823242 98.59890259 5.55823242 100.03881836 5.29882812 C107.6877769 3.96092053 115.23888531 3.24521689 123 3 C124.46933935 8.60183147 125.62334641 14.16679808 126.54296875 19.8828125 C126.6756868 20.70071259 126.80840485 21.51861267 126.94514465 22.36129761 C127.22180747 24.07697775 127.49649662 25.79297724 127.76928711 27.50927734 C128.18770678 30.1262933 128.6200576 32.74077723 129.05273438 35.35546875 C129.32117245 37.03111246 129.58877931 38.70688959 129.85546875 40.3828125 C129.9855986 41.15795197 130.11572845 41.93309143 130.24980164 42.73171997 C131.05326056 47.92011046 131.63294152 52.70329422 128.43359375 57.203125 C127.77488281 57.87859375 127.11617188 58.5540625 126.4375 59.25 C122.00409318 63.95598518 117.99039527 68.91649113 114 74 C109.85502772 72.41630776 107.35742963 69.37172522 104.5 66.125 C101.41125877 62.66594647 98.31988346 59.24158433 95 56 C94.5153125 56.49628906 94.030625 56.99257812 93.53125 57.50390625 C87.02832847 64.09436711 80.137204 70.1118067 73 76 C69.19195153 72.3429012 65.89187757 68.50430058 62.6875 64.3125 C62.23310547 63.73177734 61.77871094 63.15105469 61.31054688 62.55273438 C58 58.2465343 58 58.2465343 58 56 C53.60593007 59.42951799 50.16188456 63.0432405 46.7109375 67.42578125 C45 69 45 69 41 69 C39.09603891 67.2549522 37.47967615 65.57500331 35.8125 63.625 C35.33707764 63.08713867 34.86165527 62.54927734 34.37182617 61.99511719 C33.39067551 60.88435592 32.41389038 59.76972394 31.44140625 58.65136719 C29.26300404 56.15565029 27.03595385 53.70564998 24.8125 51.25 C23.54108616 49.83385429 22.27001544 48.41739994 21 47 C17.84947959 48.38934917 15.77996777 50.00211964 13.3984375 52.4765625 C12.74359375 53.146875 12.08875 53.8171875 11.4140625 54.5078125 C10.74117187 55.20648438 10.06828125 55.90515625 9.375 56.625 C8.03330089 58.01752105 6.68716735 59.40578767 5.3359375 60.7890625 C4.74345215 61.40475098 4.1509668 62.02043945 3.54052734 62.65478516 C2 64 2 64 0 64 C0 42.88 0 21.76 0 0 Z "
    fill="#283567"
    transform="translate(17,163)"
  />
  <path
    d="M0 0 C25.67470186 0.47968415 51.34088638 0.96110687 77 2 C79.76477105 7.61267929 82.50469503 13.23697995 85.22753906 18.87011719 C86.15705349 20.7856574 87.0922571 22.69844766 88.03320312 24.60839844 C89.38349612 27.35171521 90.71312897 30.10421867 92.0390625 32.859375 C92.46498688 33.71368103 92.89091125 34.56798706 93.32974243 35.44818115 C93.90056046 36.64897308 93.90056046 36.64897308 94.48291016 37.87402344 C94.82488434 38.57573669 95.16685852 39.27744995 95.51919556 40.00042725 C96 42 96 42 95.18515015 44.1628418 C93.92021444 46.12367943 92.64815108 47.44079207 90.875 48.953125 C90.25657227 49.48663574 89.63814453 50.02014648 89.00097656 50.56982422 C87.64490941 51.70848383 86.28744229 52.84547786 84.92871094 53.98095703 C84.24583008 54.55185059 83.56294922 55.12274414 82.859375 55.7109375 C82.18970703 56.27006836 81.52003906 56.82919922 80.83007812 57.40527344 C78.81645827 59.11112114 78.81645827 59.11112114 76.453125 61.6640625 C72.84032024 65.28967863 70.38267257 66.94360383 65.15722656 67.15673828 C63.65044395 67.06285459 62.14479865 66.94942342 60.640625 66.8203125 C59.81687378 66.76294922 58.99312256 66.70558594 58.14440918 66.64648438 C55.4277085 66.45069069 52.71423036 66.22735986 50 66 C48.09408108 65.84872553 46.18815651 65.69752217 44.28222656 65.54638672 C39.35425868 65.14611722 34.42953163 64.71499957 29.50537109 64.27050781 C26.44804006 63.99532318 23.39009282 63.72786876 20.33203125 63.4609375 C18.37756369 63.2869123 16.42313497 63.11245025 14.46875 62.9375 C13.55951782 62.85830322 12.65028564 62.77910645 11.71350098 62.69750977 C10.87411987 62.62072998 10.03473877 62.5439502 9.16992188 62.46484375 C8.43447144 62.399021 7.699021 62.33319824 6.94128418 62.26538086 C5 62 5 62 2 61 C3.3828925 57.21793395 5.1352817 54.02893181 7.328125 50.65625 C8.27945312 49.15771484 8.27945312 49.15771484 9.25 47.62890625 C10.58788437 45.53584886 11.9369556 43.44990184 13.296875 41.37109375 C14.24046875 39.87255859 14.24046875 39.87255859 15.203125 38.34375 C15.78739258 37.43818359 16.37166016 36.53261719 16.97363281 35.59960938 C18.27740841 33.04375355 18.27740841 33.04375355 17.34228516 30.45678711 C16.03380664 28.06187635 14.7304982 25.68441719 13.3203125 23.34765625 C12.80339844 22.48849609 12.28648437 21.62933594 11.75390625 20.74414062 C11.21636719 19.85919922 10.67882812 18.97425781 10.125 18.0625 C9.33029297 16.74088867 9.33029297 16.74088867 8.51953125 15.39257812 C6.29291886 11.7045787 4.06162542 8.04429769 1.6171875 4.49609375 C0 2 0 2 0 0 Z "
    fill="#273568"
    transform="translate(273,201)"
  />
  <path
    d="M0 0 C4.05025869 2.02512934 7.11986558 4.49808606 10.5 7.4375 C15.62765302 11.87000303 15.62765302 11.87000303 21 16 C24.90285767 14.41332422 27.33520982 11.86649519 30.25 8.875 C31.14203125 7.96492187 32.0340625 7.05484375 32.953125 6.1171875 C33.62859375 5.41851562 34.3040625 4.71984375 35 4 C38.2017485 7.11327185 41.10799072 10.25951721 43.8125 13.8125 C44.41707031 14.60269531 45.02164063 15.39289063 45.64453125 16.20703125 C46.09183594 16.79871094 46.53914063 17.39039063 47 18 C50.82670456 14.40045142 53.78189631 10.33998232 56.8203125 6.0703125 C57.83458935 4.67910844 58.91273721 3.33494041 60 2 C60.66 2 61.32 2 62 2 C63.28100586 3.51293945 63.28100586 3.51293945 64.71484375 5.61328125 C65.23626953 6.36673828 65.75769531 7.12019531 66.29492188 7.89648438 C67.10799805 9.09241211 67.10799805 9.09241211 67.9375 10.3125 C69.00639567 11.87295966 70.07791874 13.43162355 71.15234375 14.98828125 C71.62663818 15.68477783 72.10093262 16.38127441 72.58959961 17.09887695 C73.93626817 18.91409387 75.35968828 20.44995844 77 22 C78.2684375 20.80503906 78.2684375 20.80503906 79.5625 19.5859375 C80.70814168 18.51541986 81.85398599 17.44511904 83 16.375 C83.55300781 15.85292969 84.10601562 15.33085937 84.67578125 14.79296875 C88.9531037 10.81063405 93.2628732 7.5528451 98 4 C103.28 9.28 108.56 14.56 114 20 C117.27679215 18.90773595 117.92308502 18.20070846 120.0625 15.625 C123.11258061 12.03282797 126.21400961 8.49482997 129.375 5 C130.22835937 4.05125 131.08171875 3.1025 131.9609375 2.125 C132.63382813 1.42375 133.30671875 0.7225 134 0 C134.33 0 134.66 0 135 0 C135.07440448 5.15947346 135.12872191 10.31863151 135.16479492 15.47851562 C135.17983995 17.23215173 135.20028104 18.98575047 135.22631836 20.73925781 C135.26289121 23.26637009 135.2797692 25.79298296 135.29296875 28.3203125 C135.30845261 29.09867462 135.32393646 29.87703674 135.33988953 30.6789856 C135.34136235 35.49091894 134.85274288 38.93601363 132 43 C126.32621921 46.9683354 120.39411304 46.40251167 113.75244141 46.34057617 C112.52261536 46.34101425 111.29278931 46.34145233 110.0256958 46.34190369 C106.66643517 46.34017595 103.30773263 46.32516624 99.94857073 46.30418181 C96.43320909 46.28538457 92.91783944 46.28366218 89.4024353 46.28010559 C82.75144518 46.27079404 76.1006036 46.24619243 69.44967878 46.21605712 C61.87533957 46.1824853 54.30099315 46.16602013 46.72659802 46.15097082 C31.15096477 46.11964195 15.57553604 46.06464116 0 46 C0 30.82 0 15.64 0 0 Z "
    fill="#273567"
    transform="translate(13,230)"
  />
  <path
    d="M0 0 C-0.91595014 6.96437949 -2.97806649 11.0886122 -8 16 C-6.63629701 18.99220268 -5.05091917 21.29026529 -2.875 23.75 C-2.33617187 24.36359375 -1.79734375 24.9771875 -1.2421875 25.609375 C-0.83226562 26.06828125 -0.42234375 26.5271875 0 27 C-34.53415597 35.36942792 -69.21887836 40.35446267 -104.50146484 44.46484375 C-118.59302628 46.11922795 -132.57005994 48.11387537 -146.54476929 50.56939697 C-149.72513019 51.12717471 -152.90932529 51.66128913 -156.09375 52.1953125 C-157.89595877 52.50447802 -159.69805182 52.81431928 -161.5 53.125 C-162.42167969 53.28097656 -163.34335938 53.43695313 -164.29296875 53.59765625 C-168.3846505 54.30392371 -172.41698117 55.06739361 -176.4375 56.109375 C-179.79290701 56.94822675 -182.56197563 57.17190122 -186 57 C-186.61224589 50.14284598 -185.37693172 46.31866764 -181 41 C-173.55682136 32.8692298 -163.9759287 28.44713952 -153.35546875 25.984375 C-152.62374451 25.81402237 -151.89202026 25.64366974 -151.13812256 25.46815491 C-142.96519501 23.6512261 -134.71270126 22.66183587 -126.39959717 21.73394775 C-122.75749634 21.32645464 -119.11844311 20.89418525 -115.47897339 20.46392822 C-112.84399259 20.1528605 -110.20866057 19.84493305 -107.57324219 19.53759766 C-74.89375222 15.71075558 -42.38349577 9.564527 -10.52294922 1.36230469 C-6.91257626 0.43329109 -3.74321671 -0.23395104 0 0 Z "
    fill="#5F6B71"
    transform="translate(382,57)"
  />
  <path
    d="M0 0 C0.84338425 -0.00145523 1.68676849 -0.00291046 2.55570984 -0.00440979 C4.33852595 -0.00275176 6.12135652 0.0087989 7.90405273 0.02954102 C10.61700139 0.05838412 13.32798096 0.05017058 16.04101562 0.03710938 C17.77735316 0.04335083 19.51368456 0.05174495 21.25 0.0625 C22.05440018 0.05956436 22.85880035 0.05662872 23.68757629 0.05360413 C30.24197229 0.16194445 34.94116734 1.49216416 40.07421875 5.80859375 C45.05421614 11.75692396 46.39453782 17.47293896 46.53515625 25.05859375 C46.56351563 26.10273438 46.591875 27.146875 46.62109375 28.22265625 C46.67317297 30.40477554 46.7174455 32.58709513 46.75390625 34.76953125 C46.78484375 35.81367188 46.81578125 36.8578125 46.84765625 37.93359375 C46.87738525 39.35478516 46.87738525 39.35478516 46.90771484 40.8046875 C47.40169737 43.99675278 48.42329921 45.90084161 50.32421875 48.49609375 C53.00954706 49.94238418 53.00954706 49.94238418 56.01171875 50.80859375 C57.00558594 51.13472656 57.99945313 51.46085937 59.0234375 51.796875 C60.16232422 52.14298828 60.16232422 52.14298828 61.32421875 52.49609375 C61.38029297 54.44902344 61.38029297 54.44902344 61.4375 56.44140625 C61.50318549 58.16799632 61.56963193 59.89455756 61.63671875 61.62109375 C61.65927734 62.47703125 61.68183594 63.33296875 61.70507812 64.21484375 C61.92198012 69.3416182 62.50802408 73.04873681 65.32421875 77.49609375 C67.77876363 79.71310203 70.37510615 81.04308629 73.32421875 82.49609375 C63.24065507 82.54244916 53.15711677 82.57797929 43.07346821 82.59971809 C38.39114427 82.61015201 33.70889328 82.6243041 29.02661133 82.64697266 C24.5073341 82.66871494 19.988127 82.68066533 15.4688015 82.68584824 C13.74524011 82.68954149 12.02168252 82.69675349 10.29815102 82.70755386 C7.88268383 82.7220872 5.46750588 82.72407092 3.05200195 82.72314453 C2.34062073 82.73033508 1.6292395 82.73752563 0.89630127 82.74493408 C-3.05350912 82.72855939 -6.16739124 82.37016297 -9.67578125 80.49609375 C-11.15179346 77.54406933 -10.92388477 74.84281423 -10.98828125 71.55859375 C-11.02566406 70.31207031 -11.06304687 69.06554687 -11.1015625 67.78125 C-10.67578125 64.49609375 -10.67578125 64.49609375 -8.90625 62.6171875 C-4.32132888 60.31268249 0.19638821 60.24543545 5.26171875 59.99609375 C9.68871423 59.77697573 13.99385577 59.51300873 18.32421875 58.49609375 C18.32421875 56.18609375 18.32421875 53.87609375 18.32421875 51.49609375 C15.27459644 50.47955298 13.04779458 50.3282783 9.8515625 50.25 C8.78744141 50.21712891 7.72332031 50.18425781 6.62695312 50.15039062 C4.37966309 50.08908904 2.13225978 50.03181074 -0.11523438 49.97851562 C-1.70948242 49.92727539 -1.70948242 49.92727539 -3.3359375 49.875 C-4.31183838 49.84994385 -5.28773926 49.8248877 -6.29321289 49.79907227 C-8.67578125 49.49609375 -8.67578125 49.49609375 -10.67578125 47.49609375 C-10.9765625 44.81640625 -10.9765625 44.81640625 -10.98828125 41.62109375 C-11.00503906 40.57179688 -11.02179688 39.5225 -11.0390625 38.44140625 C-10.640384 35.20910961 -9.84546234 33.86614117 -7.67578125 31.49609375 C-1.06585217 32.25877787 -1.06585217 32.25877787 1 33.515625 C4.67021779 35.06390175 8.32089935 34.82442033 12.26171875 34.80859375 C13.06029297 34.82470703 13.85886719 34.84082031 14.68164062 34.85742188 C19.32001817 34.86126477 22.65367833 34.66411971 26.32421875 31.49609375 C27.07421875 27.99609375 27.07421875 27.99609375 26.32421875 24.49609375 C23.93547189 21.93569378 22.48509408 21.51460434 18.98022461 21.11132812 C17.02934937 21.10069336 17.02934937 21.10069336 15.0390625 21.08984375 C14.34156387 21.07900757 13.64406525 21.06817139 12.9254303 21.05700684 C9.95124883 21.01123515 6.97715622 20.99965045 4.00268555 20.98486328 C1.82699476 20.96917834 -0.34796576 20.93618781 -2.5234375 20.90234375 C-3.82289307 20.89525391 -5.12234863 20.88816406 -6.46118164 20.88085938 C-9.67578125 20.49609375 -9.67578125 20.49609375 -11.59570312 19.15795898 C-13.30689056 16.52503564 -13.10976634 14.15522782 -13.11328125 11.05859375 C-13.13261719 9.92550781 -13.15195313 8.79242188 -13.171875 7.625 C-11.97114414 0.0518865 -6.62938328 -0.09188999 0 0 Z "
    fill="#273567"
    transform="translate(171.67578125,400.50390625)"
  />
  <path
    d="M0 0 C2.13086377 3.19629565 2.33909988 4.47423261 2.6328125 8.19921875 C2.71692383 9.235625 2.80103516 10.27203125 2.88769531 11.33984375 C2.96600586 12.44457031 3.04431641 13.54929687 3.125 14.6875 C3.2084668 15.81929688 3.29193359 16.95109375 3.37792969 18.1171875 C5.83693507 53.32612986 5.83693507 53.32612986 1 63 C-0.828125 63.61914062 -0.828125 63.61914062 -3.25 64.15625 C-4.15621094 64.36886475 -5.06242187 64.58147949 -5.99609375 64.80053711 C-6.98738281 65.03135986 -7.97867188 65.26218262 -9 65.5 C-26.56486188 69.83168764 -43.17946754 76.88262561 -59.40234375 84.8203125 C-62 86 -62 86 -64 86 C-65.60056427 81.53967963 -67.18490387 77.07404684 -68.75463867 72.6027832 C-69.29060504 71.08332099 -69.83093125 69.5653892 -70.37573242 68.04907227 C-71.15921724 65.86604745 -71.92672771 63.67795344 -72.69140625 61.48828125 C-72.93717911 60.81412674 -73.18295197 60.13997223 -73.43617249 59.44538879 C-74.74414659 55.64391996 -75.68162264 52.76335692 -74 49 C-71.58935547 47.32177734 -71.58935547 47.32177734 -68.3671875 45.8359375 C-67.17891357 45.27648437 -65.99063965 44.71703125 -64.76635742 44.140625 C-63.46928653 43.551977 -62.17216631 42.96343769 -60.875 42.375 C-59.55679853 41.75973715 -58.239502 41.14253195 -56.9230957 40.5234375 C-53.59159888 38.96072232 -50.25167524 37.41709996 -46.90863037 35.87927246 C-42.97297979 34.06618742 -39.04703242 32.23277106 -35.12744141 30.38525391 C-33.22676671 29.48968604 -31.32173345 28.60328551 -29.41162109 27.72802734 C-15.97914469 21.42881456 -8.17931566 12.13223721 0 0 Z "
    fill="#273567"
    transform="translate(422,285)"
  />
  <path
    d="M0 0 C24.75 0 49.5 0 75 0 C75 16 75 16 71.3125 20.375 C69.56856107 21.62183485 67.79483186 22.82760983 66 24 C63.97016786 25.55079176 61.9499298 27.11419141 59.9375 28.6875 C58.81695082 29.53977896 57.69583956 30.39131932 56.57421875 31.2421875 C52.73085174 34.18254983 48.99120638 37.24389577 45.25 40.3125 C38.92278847 45.4937056 32.48542395 50.50850557 25.9675293 55.44726562 C21.15124621 59.09987167 16.43263415 62.84077605 11.78515625 66.70703125 C10 68 10 68 8 68 C5.76748991 61.90017108 4.30235084 55.98545838 3.375 49.5625 C3.19324219 48.38977539 3.19324219 48.38977539 3.0078125 47.19335938 C0.62262758 31.41743518 0.53669342 16.10080248 0 0 Z "
    fill="#273567"
    transform="translate(71,287)"
  />
  <path
    d="M0 0 C0.74830078 -0.01772461 1.49660156 -0.03544922 2.26757812 -0.05371094 C8.14693624 -0.04592714 13.94186913 0.83780409 18.52416992 4.78808594 C19.8125 6.3125 19.8125 6.3125 20.0625 8.37109375 C18.67200638 21.60250961 12.70033781 32.6337135 2.5 41.125 C-8.55236895 49.26785644 -20.90537829 50.19308265 -34.1875 49.3125 C-45.21394676 47.6388429 -55.76602051 43.48376916 -62.6640625 34.359375 C-66.7946341 28.03066296 -68.28593205 22.90966447 -68.1875 15.3125 C-67.56931396 15.21751221 -66.95112793 15.12252441 -66.31420898 15.0246582 C-51.77270358 12.75065016 -38.53558658 9.83152931 -24.9375 4.125 C-16.77836532 0.83201591 -8.72227057 0.12480763 0 0 Z "
    fill="#273567"
    transform="translate(442.1875,404.6875)"
  />
  <path
    d="M0 0 C0.09981078 4.25001966 0.17190512 8.49939595 0.21972656 12.75024414 C0.23968751 14.19242252 0.26686663 15.6345216 0.30175781 17.07641602 C0.52601605 26.59090169 0.41716935 34.62653626 -5.89453125 42.3046875 C-13.31770917 48.38231993 -20.09471732 51.06807584 -29.77734375 51.19287109 C-30.91623047 51.20893402 -32.05511719 51.22499695 -33.22851562 51.24154663 C-38.44252465 51.28637812 -43.65645107 51.32750824 -48.87060547 51.35009766 C-51.60955676 51.3633735 -54.34775176 51.39111483 -57.08642578 51.43212891 C-61.0575918 51.49156965 -65.02840492 51.50883697 -69 51.5234375 C-70.81165649 51.55744156 -70.81165649 51.55744156 -72.65991211 51.59213257 C-86.15761395 51.5590866 -99.45545443 46.38402333 -109.203125 36.84375 C-113.63472639 31.87170941 -115.4493516 28.85982297 -115.4296875 22.14453125 C-114.4688496 15.11294477 -111.15445532 8.30891064 -108 2 C-103.57975138 2.40277966 -101.47359789 5.40858414 -98.75 8.5625 C-97.77085195 9.66263521 -96.79037702 10.76159087 -95.80859375 11.859375 C-95.33019043 12.39755859 -94.85178711 12.93574219 -94.35888672 13.49023438 C-78.54832493 31.39274972 -78.54832493 31.39274972 -58.09765625 41.3046875 C-47.79836386 40.29164235 -37.89381734 30.35904728 -30 24 C-28.62714844 22.90171875 -28.62714844 22.90171875 -27.2265625 21.78125 C-21.91272846 17.48031687 -16.69698513 13.06577992 -11.5 8.625 C-10.60003296 7.85663818 -10.60003296 7.85663818 -9.68188477 7.07275391 C-6.45609195 4.31624006 -6.45609195 4.31624006 -3.43945312 1.33740234 C-2 0 -2 0 0 0 Z "
    fill="#751716"
    transform="translate(351,438)"
  />
  <path
    d="M0 0 C1.12377697 3.30435084 0.89554742 5.0506862 -0.4375 8.25 C-0.72496094 8.95640625 -1.01242187 9.6628125 -1.30859375 10.390625 C-1.53675781 10.92171875 -1.76492188 11.4528125 -2 12 C-1.56429687 12.46148437 -1.12859375 12.92296875 -0.6796875 13.3984375 C11 26.19047619 11 26.19047619 11 31 C10.03400879 30.94465088 9.06801758 30.88930176 8.07275391 30.83227539 C4.39356358 30.62150796 0.71436147 30.41094682 -2.96484375 30.20043945 C-4.5393911 30.11032405 -6.11393551 30.02015703 -7.68847656 29.92993164 C-8.44354492 29.88666748 -9.19861328 29.84340332 -9.9765625 29.79882812 C-10.73372559 29.75537262 -11.49088867 29.71191711 -12.27099609 29.66714478 C-13.83604378 29.57791213 -15.40115011 29.48970292 -16.96630859 29.4024353 C-20.6848984 29.19447783 -24.40166518 28.97656482 -28.1171875 28.71923828 C-41.46748588 27.82812792 -54.82319046 27.77825933 -68.19921875 27.75976562 C-72.20068517 27.75326544 -76.20177837 27.71902218 -80.203125 27.6875 C-105.68991264 27.58400503 -132.48202459 28.60203379 -157.2578125 35.08984375 C-161 36 -161 36 -165 36 C-162.74188884 29.10926904 -157.6547339 26.93350914 -151.51171875 23.68359375 C-127.08667343 12.40777688 -97.41395215 12.10734362 -70.99609375 10.0390625 C-66.85152394 9.71402905 -62.70696581 9.38885733 -58.5625 9.0625 C-57.54064606 8.98218536 -56.51879211 8.90187073 -55.4659729 8.81912231 C-27.11874491 7.26169025 -27.11874491 7.26169025 0 0 Z "
    fill="#5F6B71"
    transform="translate(375,101)"
  />
  <path
    d="M0 0 C-2.11274681 2.22394401 -4.30513909 3.98940733 -6.8125 5.75 C-23.19222825 18.10192622 -29.92857043 41.75534323 -32.70019531 61.33154297 C-33.51398563 68.57480699 -33.88590197 75.87221897 -34.26635742 83.14916992 C-34.33443604 84.3632251 -34.40251465 85.57728027 -34.47265625 86.828125 C-34.52687744 87.9202832 -34.58109863 89.01244141 -34.63696289 90.13769531 C-34.98654463 92.89391344 -35.58441702 94.6370021 -37 97 C-40.70228558 95.55502897 -41.90155883 93.95630025 -43.6730957 90.44604492 C-44.15651932 89.50133835 -44.63994293 88.55663177 -45.13801575 87.58329773 C-45.64547836 86.55936417 -46.15294098 85.5354306 -46.67578125 84.48046875 C-47.20519821 83.42974686 -47.73461517 82.37902496 -48.28007507 81.29646301 C-49.39622858 79.07262225 -50.50625004 76.84569481 -51.6105957 74.6159668 C-53.30524953 71.20210599 -55.0271274 67.80299372 -56.75195312 64.40429688 C-57.83240428 62.2430241 -58.91123531 60.08094049 -59.98828125 57.91796875 C-60.50586502 56.90010788 -61.02344879 55.88224701 -61.55671692 54.83354187 C-62.02437973 53.87937881 -62.49204254 52.92521576 -62.97387695 51.94213867 C-63.39039017 51.1065593 -63.80690338 50.27097992 -64.23603821 49.41007996 C-65.55562649 45.24715807 -63.9911867 41.78716432 -62.51171875 37.84765625 C-60.77559511 32.7574895 -60.23946508 27.77652211 -59.8125 22.4375 C-59.73064453 21.52419922 -59.64878906 20.61089844 -59.56445312 19.66992188 C-59.36662519 17.44726687 -59.17864676 15.22426445 -59 13 C-39.95984055 4.82789617 -20.89830336 -0.61566196 0 0 Z "
    fill="#273567"
    transform="translate(247,269)"
  />
  <path
    d="M0 0 C7.41424724 4.40172152 10.18972073 11.2560976 12.25 19.3125 C13.16132484 24.53414502 13.24468937 29.77472422 13.3125 35.0625 C13.33022461 35.90143799 13.34794922 36.74037598 13.36621094 37.60473633 C13.35637252 45.97641373 11.54587625 53.25103709 5.75 59.49609375 C-0.89624525 65.20771076 -8.31882573 66.35688822 -16.828125 66.28125 C-22.20744107 65.80426631 -24.6750471 63.39856139 -28.25 59.625 C-33.06508153 52.4023777 -32.6734832 44.36802879 -32 36 C-29.31536496 23.27849075 -21.60616268 7.62471862 -10.4375 0.3125 C-6.22783894 -1.29482513 -4.29260974 -1.37976742 0 0 Z "
    fill="#273567"
    transform="translate(468,169)"
  />
  <path
    d="M0 0 C2.45703125 1.41015625 2.45703125 1.41015625 4.8125 3.0625 C5.60269531 3.61035156 6.39289063 4.15820312 7.20703125 4.72265625 C7.79871094 5.14417969 8.39039063 5.56570313 9 6 C4.83188202 18.34291276 0.32223379 30.53793087 -4.375 42.6875 C-4.78051086 43.7401152 -4.78051086 43.7401152 -5.19421387 44.81399536 C-5.96740868 46.8186668 -6.74460886 48.82173031 -7.5234375 50.82421875 C-7.97638184 51.99041748 -8.42932617 53.15661621 -8.89599609 54.3581543 C-10 57 -10 57 -11 58 C-29.17146189 58.85274172 -49.26608707 56.59384935 -65 47 C-65 44 -65 44 -63.64916992 42.59643555 C-63.01599854 42.114729 -62.38282715 41.63302246 -61.73046875 41.13671875 C-61.01656982 40.58709473 -60.3026709 40.0374707 -59.56713867 39.47119141 C-58.78185791 38.88257324 -57.99657715 38.29395508 -57.1875 37.6875 C-56.37579346 37.06794434 -55.56408691 36.44838867 -54.7277832 35.81005859 C-48.32479932 30.94243702 -41.85079397 26.16935416 -35.35839844 21.421875 C-28.05226836 16.07226104 -20.85537696 10.58382349 -13.67651367 5.06494141 C-12.8332251 4.41831543 -11.98993652 3.77168945 -11.12109375 3.10546875 C-10.3727124 2.52949951 -9.62433105 1.95353027 -8.85327148 1.36010742 C-5.47072596 -1.12232719 -4.03175468 -1.13595424 0 0 Z "
    fill="#273567"
    transform="translate(153,317)"
  />
  <path
    d="M0 0 C0.33941704 3.97867183 0.67041655 7.95800248 1 11.9375 C1.09539062 13.05447266 1.19078125 14.17144531 1.2890625 15.32226562 C1.80242306 21.57426392 2.10643087 27.72723037 2 34 C-15.07691078 43.58754888 -36.24494712 51.36267376 -56 51 C-57.20469568 47.58915232 -58.38570092 44.17056267 -59.5625 40.75 C-59.90474609 39.78191406 -60.24699219 38.81382812 -60.59960938 37.81640625 C-60.91865234 36.88183594 -61.23769531 35.94726562 -61.56640625 34.984375 C-61.86490479 34.12553711 -62.16340332 33.26669922 -62.47094727 32.38183594 C-63.0627404 29.71753793 -63.15939647 28.47133661 -62 26 C-60.01660156 24.49536133 -60.01660156 24.49536133 -57.390625 23.08203125 C-56.41859131 22.55407959 -55.44655762 22.02612793 -54.44506836 21.48217773 C-53.3906958 20.93118408 -52.33632324 20.38019043 -51.25 19.8125 C-50.17049072 19.24023682 -49.09098145 18.66797363 -47.97875977 18.07836914 C-13.38491258 0 -13.38491258 0 0 0 Z "
    fill="#273567"
    transform="translate(425,358)"
  />
  <path
    d="M0 0 C0.81316681 -0.0049649 1.62633362 -0.00992981 2.46414185 -0.01504517 C5.16116168 -0.02968114 7.85812271 -0.03647108 10.55517578 -0.04199219 C12.42603559 -0.04774235 14.29689537 -0.0535001 16.16775513 -0.05926514 C20.09361038 -0.06977914 24.01944514 -0.07561922 27.9453125 -0.07910156 C32.97828242 -0.08458786 38.01098201 -0.10861709 43.04386711 -0.13707352 C46.90944208 -0.15568771 50.77495177 -0.16090484 54.64056778 -0.16243744 C56.49614058 -0.16546714 58.35171214 -0.17350631 60.20724106 -0.18662262 C62.80243304 -0.20365815 65.39696245 -0.20180912 67.9921875 -0.1953125 C69.14409576 -0.20913467 69.14409576 -0.20913467 70.3192749 -0.22323608 C73.4904589 -0.19834057 75.76869079 -0.03064965 78.58694458 1.48419189 C80.75792653 3.85046103 80.84712529 6.02954912 81.12548828 9.16113281 C79.59794922 10.23427734 79.59794922 10.23427734 78.03955078 11.32910156 C70.26894421 16.79627501 62.52000385 22.29210594 54.81298828 27.84863281 C54.06202881 28.38786377 53.31106934 28.92709473 52.53735352 29.48266602 C49.13968446 31.93311968 45.77826854 34.4073641 42.50048828 37.01660156 C41.95561768 37.44561768 41.41074707 37.87463379 40.84936523 38.31665039 C39.42473294 39.44743671 38.01467342 40.59651696 36.60595703 41.74707031 C34.12548828 43.16113281 34.12548828 43.16113281 31.70751953 43.22363281 C28.10071734 41.7394419 25.47947283 39.37183161 22.62548828 36.78613281 C21.38378021 35.69053712 20.14158118 34.59549765 18.89892578 33.50097656 C17.95871582 32.66542236 17.95871582 32.66542236 16.99951172 31.81298828 C14.1229252 29.27742492 11.18697878 26.81426254 8.25048828 24.34863281 C4.59264406 21.25848954 0.93827497 18.16445577 -2.68701172 15.03613281 C-3.62480469 14.22789062 -3.62480469 14.22789062 -4.58154297 13.40332031 C-5.00822266 12.99339844 -5.43490234 12.58347656 -5.87451172 12.16113281 C-5.87451172 11.83113281 -5.87451172 11.50113281 -5.87451172 11.16113281 C15.46835652 10.38898632 36.76855717 10.01517544 58.12548828 10.16113281 C57.34214111 10.78600586 56.55879395 11.41087891 55.75170898 12.0546875 C53.56977189 13.80478077 51.43042932 15.58432093 49.31298828 17.41113281 C48.70841797 17.93191406 48.10384766 18.45269531 47.48095703 18.98925781 C46.81 19.56933594 46.81 19.56933594 46.12548828 20.16113281 C46.82673828 19.71382813 47.52798828 19.26652344 48.25048828 18.80566406 C49.19923828 18.20109375 50.14798828 17.59652344 51.12548828 16.97363281 C52.05361328 16.38195312 52.98173828 15.79027344 53.93798828 15.18066406 C57.65684869 12.82447432 61.39221942 10.49442585 65.12548828 8.16113281 C40.04548828 7.83113281 14.96548828 7.50113281 -10.87451172 7.16113281 C-10.54451172 5.18113281 -10.21451172 3.20113281 -9.87451172 1.16113281 C-6.75200242 -0.40012184 -3.42823784 0.00496418 0 0 Z "
    fill="#751816"
    transform="translate(262.87451171875,429.8388671875)"
  />
  <path
    d="M0 0 C0.38779184 9.29264153 0.47723094 17.64418332 -5.25 25.375 C-10.35092324 30.24406309 -15.8697781 31.31528098 -22.6875 32.3125 C-34.85137655 34.36049962 -45.484717 39.67132629 -53.0078125 49.66796875 C-54.24778061 51.4475991 -55.4648442 53.24353179 -56.65234375 55.05859375 C-57.09707031 55.69925781 -57.54179688 56.33992188 -58 57 C-58.33 57 -58.66 57 -59 57 C-59.88251558 42.6836362 -57.28725645 26.99339983 -48.03125 15.5703125 C-35.25557787 1.84996039 -17.87792578 -0.24195689 0 0 Z "
    fill="#273567"
    transform="translate(150,395)"
  />
  <path
    d="M0 0 C1.65 0 3.3 0 5 0 C7.18912592 4.31530573 9.35077296 8.6436919 11.5 12.97900391 C12.61914498 15.23295897 13.7418049 17.48500364 14.8671875 19.73583984 C16.59575826 23.19625591 18.31022446 26.66342255 20.01779175 30.13424683 C20.7142083 31.54463631 21.41483647 32.95295402 22.11965942 34.35916138 C23.123625 36.36429055 24.1121643 38.37636579 25.09765625 40.390625 C25.68039307 41.56657227 26.26312988 42.74251953 26.86352539 43.95410156 C27.99309305 46.98148849 28.25077069 48.08706216 27 51 C25.16830682 51.48539869 23.33453941 51.96297186 21.5 52.4375 C20.4790625 52.70433594 19.458125 52.97117187 18.40625 53.24609375 C10.15799406 55.07168251 1.91755897 55.28037302 -6.5 55.5625 C-7.70398438 55.60568359 -8.90796875 55.64886719 -10.1484375 55.69335938 C-13.09886193 55.79873168 -16.04936071 55.90085903 -19 56 C-17.61179251 49.01185143 -15.54606225 42.51947409 -13.0859375 35.83984375 C-12.71143463 34.80936417 -12.33693176 33.77888458 -11.95108032 32.71717834 C-10.76429305 29.45534773 -9.56978108 26.19640991 -8.375 22.9375 C-7.56459038 20.71437993 -6.75468935 18.4910744 -5.9453125 16.26757812 C-3.96941866 10.84289318 -1.98719023 5.4205563 0 0 Z "
    fill="#273567"
    transform="translate(172,323)"
  />
  <path
    d="M0 0 C0.66 0 1.32 0 2 0 C3.70622919 1.9844852 5.29781019 3.97852382 6.875 6.0625 C7.85731064 7.33782708 8.8404132 8.6125445 9.82421875 9.88671875 C10.33903809 10.55622559 10.85385742 11.22573242 11.38427734 11.91552734 C14.11169983 15.43422381 16.90022097 18.90366194 19.6875 22.375 C20.48099854 23.36512085 20.48099854 23.36512085 21.29052734 24.37524414 C22.52640432 25.91732164 23.76310538 27.45873864 25 29 C23.58863264 31.97632717 21.96128749 34.65396308 20.1015625 37.37109375 C19.53953125 38.19287109 18.9775 39.01464844 18.3984375 39.86132812 C17.81320312 40.71146484 17.22796875 41.56160156 16.625 42.4375 C16.0475 43.28376953 15.47 44.13003906 14.875 45.00195312 C12.04898207 49.12161625 9.20228609 53.15883417 6 57 C2.60254935 55.59231503 1.06285944 54.08627381 -0.953125 51.03515625 C-1.48655518 50.23956299 -2.01998535 49.44396973 -2.56958008 48.62426758 C-3.12411865 47.77888428 -3.67865723 46.93350098 -4.25 46.0625 C-5.40370602 44.33771032 -6.55865081 42.61374859 -7.71484375 40.890625 C-8.27413574 40.05337891 -8.83342773 39.21613281 -9.40966797 38.35351562 C-12.4796758 33.81024336 -15.72772173 29.39928649 -19 25 C-17.32924738 20.99796466 -14.56750141 17.97837726 -11.75 14.75 C-7.99338633 10.39742933 -4.40573896 6.02012877 -1.12109375 1.29296875 C-0.75113281 0.86628906 -0.38117188 0.43960938 0 0 Z "
    fill="#273567"
    transform="translate(255,201)"
  />
  <path
    d="M0 0 C4.25954312 0.56145671 7.68650958 1.56528932 11.5625 3.40625 C13.12013062 4.14500366 13.12013062 4.14500366 14.70922852 4.89868164 C15.79518311 5.4271167 16.8811377 5.95555176 18 6.5 C19.11109131 7.03810303 20.22218262 7.57620605 21.36694336 8.13061523 C38.598599 16.60633297 38.598599 16.60633297 45 22 C45 25.62736752 44.40670249 25.98697092 41.96484375 28.51171875 C41.31966797 29.18783203 40.67449219 29.86394531 40.00976562 30.56054688 C39.32591797 31.26244141 38.64207031 31.96433594 37.9375 32.6875 C36.61192842 34.06510579 35.28770583 35.44401092 33.96484375 36.82421875 C33.3085498 37.50532715 32.65225586 38.18643555 31.97607422 38.88818359 C29.35978988 41.68418798 26.89491241 44.59803263 24.44750977 47.54223633 C23.96983154 48.02329834 23.49215332 48.50436035 23 49 C22.34 49 21.68 49 21 49 C18.16543542 42.66658532 15.33595672 36.33091683 12.51000977 29.99365234 C11.54796556 27.83785553 10.58475637 25.68257822 9.62036133 23.52783203 C8.23472722 20.43137125 6.85328729 17.33306915 5.47265625 14.234375 C5.04034195 13.27070007 4.60802765 12.30702515 4.16261292 11.31414795 C3.56210365 9.96320038 3.56210365 9.96320038 2.94946289 8.58496094 C2.41984703 7.39915436 2.41984703 7.39915436 1.87953186 6.18939209 C1.05525773 4.13755141 0.47589954 2.15630517 0 0 Z "
    fill="#273567"
    transform="translate(114,37)"
  />
  <path
    d="M0 0 C-0.680625 0.680625 -1.36125 1.36125 -2.0625 2.0625 C-2.74699219 2.75279297 -2.74699219 2.75279297 -3.4453125 3.45703125 C-4.50808426 4.51179216 -5.58716934 5.55030056 -6.6796875 6.57421875 C-12.1200269 11.76067564 -16.81024289 17.37557437 -19.1796875 24.59375 C-21.26801331 28.50151847 -21.26801331 28.50151847 -24.6171875 29.8125 C-26.02811981 30.23709832 -27.44816495 30.63236502 -28.875 31 C-29.58269531 31.21527344 -30.29039062 31.43054688 -31.01953125 31.65234375 C-35.10074108 32.81514655 -37.91997689 32.98845466 -42 32 C-42.8382125 28.06352226 -43.66973255 24.12566049 -44.5 20.1875 C-44.73847656 19.06794922 -44.97695312 17.94839844 -45.22265625 16.79492188 C-45.44824219 15.72177734 -45.67382812 14.64863281 -45.90625 13.54296875 C-46.11572266 12.55321045 -46.32519531 11.56345215 -46.54101562 10.54370117 C-47 8 -47 8 -47 5 C-41.59313425 4.28132723 -36.1854276 3.56948594 -30.77685547 2.86376953 C-28.93969883 2.62310104 -27.10277913 2.38061626 -25.26611328 2.13623047 C-22.61552216 1.78387299 -19.96412805 1.43820659 -17.3125 1.09375 C-16.50071289 0.9843811 -15.68892578 0.87501221 -14.85253906 0.7623291 C-9.85684387 0.12135933 -5.0369991 -0.10073998 0 0 Z "
    fill="#273567"
    transform="translate(194,161)"
  />
  <path
    d="M0 0 C8.25 0 16.5 0 25 0 C25 10.56 25 21.12 25 32 C16.75 32 8.5 32 0 32 C0 21.44 0 10.88 0 0 Z "
    fill="#283567"
    transform="translate(443,323)"
  />
  <path
    d="M0 0 C0.05447822 2.52113092 0.09389852 5.0410585 0.125 7.5625 C0.14175781 8.26697266 0.15851563 8.97144531 0.17578125 9.69726562 C0.2194815 14.43874322 -0.08756895 18.57955222 -2 23 C-8.71880172 27.75469471 -17.47350718 26.90221234 -25.28808594 25.62646484 C-38.84345522 22.95801793 -38.84345522 22.95801793 -44 20 C-35.18252602 10.27927259 -13.16400011 0 0 0 Z "
    fill="#273567"
    transform="translate(152,432)"
  />
  <path
    d="M0 0 C8.91 0 17.82 0 27 0 C27 8.58 27 17.16 27 26 C18.09 26 9.18 26 0 26 C0 17.42 0 8.84 0 0 Z "
    fill="#273667"
    transform="translate(443,285)"
  />
  <path
    d="M0 0 C0 8.58 0 17.16 0 26 C-3.6196875 26.7115625 -3.6196875 26.7115625 -7.3125 27.4375 C-8.04766846 27.58501709 -8.78283691 27.73253418 -9.5402832 27.88452148 C-15.41393155 29.01088083 -20.94763468 29.44978497 -27 30 C-27 22.08 -27 14.16 -27 6 C-19.16025067 3.90006714 -19.16025067 3.90006714 -15.85546875 3.0234375 C-13.69049277 2.44874276 -11.52599967 1.87219547 -9.36328125 1.2890625 C-6.07615253 0.42501724 -3.4363091 0 0 0 Z "
    fill="#273667"
    transform="translate(470,242)"
  />
  <path
    d="M0 0 C8.25 0 16.5 0 25 0 C23.68 10.56 22.36 21.12 21 32 C15.21258441 30.07086147 9.56964393 28.10959798 3.9375 25.8125 C3.26267578 25.53986328 2.58785156 25.26722656 1.89257812 24.98632812 C0.26073506 24.32664689 -1.36978152 23.66368579 -3 23 C-3.16894947 17.64289401 -2.56395772 12.8040242 -1.5 7.5625 C-1.005 5.066875 -0.51 2.57125 0 0 Z "
    fill="#273667"
    transform="translate(443,366)"
  />
  <path
    d="M0 0 C1.57441134 3.14882268 1.62094986 6.60063137 2 10.0625 C2.08685059 10.82876709 2.17370117 11.59503418 2.26318359 12.38452148 C2.51234035 14.58930166 2.75669238 16.79456788 3 19 C3.11601562 20.03125 3.23203125 21.0625 3.3515625 22.125 C3.5712037 24.08294438 3.78633395 26.04139456 4 28 C-2.87279369 27.82211593 -8.70082225 26.19395339 -15.15478516 23.87939453 C-21.66587314 21.62105163 -28.1429814 20.70788944 -35 20 C-31.351222 11.21951819 -21.26541643 6.8362304 -13.078125 3.2265625 C-8.5224 1.41121015 -4.94448567 0 0 0 Z "
    fill="#273567"
    transform="translate(134,128)"
  />
  <path
    d="M0 0 C-0.62077626 6.47567652 -1.66816458 12.71162243 -3.0625 19.0625 C-3.24876953 19.92810547 -3.43503906 20.79371094 -3.62695312 21.68554688 C-4.08066267 23.79122451 -4.53976004 25.89574007 -5 28 C-12.73128771 26.80740775 -18.79339053 22.28730642 -24.375 17 C-29.29875901 12.40331296 -34.89161207 9.72861999 -41 7 C-41 6.34 -41 5.68 -41 5 C-33.07056656 3.05968187 -25.23646263 1.66499632 -17.125 0.8125 C-16.3414917 0.72887207 -15.5579834 0.64524414 -14.75073242 0.55908203 C-9.81054259 0.07254422 -4.96359446 -0.07349286 0 0 Z "
    fill="#273567"
    transform="translate(140,91)"
  />
  <path
    d="M0 0 C11.25 2.25 11.25 2.25 16.2265625 3.7265625 C17.27714844 4.0359375 18.32773437 4.3453125 19.41015625 4.6640625 C21.00150391 5.13972656 21.00150391 5.13972656 22.625 5.625 C23.72457031 5.94984375 24.82414062 6.2746875 25.95703125 6.609375 C28.63919991 7.402364 31.32012475 8.19930166 34 9 C32.34004647 12.55095777 30.52471095 14.5854939 27.5625 17.1875 C26.675625 17.96738281 25.78875 18.74726563 24.875 19.55078125 C21.08249797 22.78162197 17.23248029 25.93564892 13.34765625 29.0546875 C11.03927203 30.89324251 11.03927203 30.89324251 9.30859375 32.7578125 C8 34 8 34 6 34 C4.02 22.78 2.04 11.56 0 0 Z "
    fill="#273567"
    transform="translate(381,457)"
  />
  <path
    d="M0 0 C4.54095898 2.8748026 8.50238847 6.03275712 12.4375 9.6875 C13.00299561 10.20989258 13.56849121 10.73228516 14.15112305 11.27050781 C18.61843686 15.47549121 22.49558402 19.95364099 26 25 C25.67 25.66 25.34 26.32 25 27 C22.84091944 27.66585671 20.64751352 28.22128563 18.4453125 28.7265625 C17.78796112 28.87910492 17.13060974 29.03164734 16.45333862 29.18881226 C15.06045227 29.51034286 13.66662699 29.8278284 12.27197266 30.14160156 C10.13878868 30.62189543 8.00874911 31.1144983 5.87890625 31.609375 C-4.53165128 34 -4.53165128 34 -8 34 C-6.5538656 28.12315594 -5.08692353 22.26097491 -3.4375 16.4375 C-1.935708 11.01524045 -0.91225362 5.54864847 0 0 Z "
    fill="#273568"
    transform="translate(186,21)"
  />
  <path
    d="M0 0 C4.28559415 4.04706387 7.79564522 8.46559899 11.3125 13.1875 C11.86228516 13.91130859 12.41207031 14.63511719 12.97851562 15.38085938 C13.49736328 16.07373047 14.01621094 16.76660156 14.55078125 17.48046875 C15.25714722 18.42249146 15.25714722 18.42249146 15.9777832 19.38354492 C17 21 17 21 17 23 C2.48 23 -12.04 23 -27 23 C-21.36734694 17.36734694 -21.36734694 17.36734694 -18.984375 15.3515625 C-18.45932373 14.90659424 -17.93427246 14.46162598 -17.39331055 14.00317383 C-16.85101807 13.54837646 -16.30872559 13.0935791 -15.75 12.625 C-15.18514893 12.14893311 -14.62029785 11.67286621 -14.03833008 11.18237305 C-9.45077074 7.3350154 -4.77380421 3.61427554 0 0 Z "
    fill="#B6582A"
    transform="translate(302,376)"
  />
  <path
    d="M0 0 C0.55914356 12.7981748 0.55914356 12.7981748 -3 18 C-5.45611619 20.45611619 -6.94230875 20.30537894 -10.30615234 20.38061523 C-22.71197801 20.34793093 -32.45668424 17.4047423 -42 9 C-42 8.34 -42 7.68 -42 7 C-41.36610352 6.95512451 -40.73220703 6.91024902 -40.07910156 6.86401367 C-21.82909513 5.77191964 -21.82909513 5.77191964 -4.3203125 0.90625 C-2 0 -2 0 0 0 Z "
    fill="#273568"
    transform="translate(148,465)"
  />
  <path
    d="M0 0 C6.85368286 5.56861733 14.07944105 11.94248762 18 20 C17.9375 22.12109375 17.9375 22.12109375 17 24 C15.25 25.53515625 15.25 25.53515625 13 27.0625 C7.32622177 31.23359218 3.2543404 36.43817909 -1 42 C-3.83390854 39.16609146 -3.54841634 36.25322098 -3.75 32.4375 C-3.79165283 31.68750732 -3.83330566 30.93751465 -3.8762207 30.16479492 C-4.29256258 20.04294426 -3.52058465 9.55162839 0 0 Z "
    fill="#273567"
    transform="translate(436,141)"
  />
  <path
    d="M0 0 C6.44851898 -0.40303244 11.10070492 0.30909347 17 3 C19 5 19 5 19.5625 8.5625 C19.45726751 13.46458 16.98326109 15.77101004 13.890625 19.34765625 C10.33909976 24.3300646 8.79217197 30.19402351 7 36 C1.22554779 30.69866467 -0.94949981 24.41975812 -1.28515625 16.640625 C-1.47521755 4.5935636 -1.47521755 4.5935636 0 0 Z "
    fill="#273567"
    transform="translate(17,288)"
  />
  <path
    d="M0 0 C0 8.91 0 17.82 0 27 C-3.86790003 28.93395001 -5.1500459 29.23289353 -9.25 29.125 C-10.14203125 29.10695312 -11.0340625 29.08890625 -11.953125 29.0703125 C-12.62859375 29.04710937 -13.3040625 29.02390625 -14 29 C-16.19017922 20.8650486 -18.2166784 12.46593478 -18 4 C-15.18781196 3.33199351 -12.37527358 2.66553236 -9.5625 2 C-8.76005859 1.80921875 -7.95761719 1.6184375 -7.13085938 1.421875 C-1.11328125 0 -1.11328125 0 0 0 Z "
    fill="#273667"
    transform="translate(169,197)"
  />
  <path
    d="M0 0 C5.28 0 10.56 0 16 0 C16 8.58 16 17.16 16 26 C11.38 26 6.76 26 2 26 C-0.69914525 17.90256424 -0.12630615 8.4625121 0 0 Z "
    fill="#283668"
    transform="translate(155,234)"
  />
  <path
    d="M0 0 C0.33 0 0.66 0 1 0 C1.02505615 0.58378418 1.0501123 1.16756836 1.07592773 1.76904297 C1.19356199 4.47116313 1.31551273 7.17307299 1.4375 9.875 C1.47681641 10.7928125 1.51613281 11.710625 1.55664062 12.65625 C1.76810289 17.27588725 2.09474176 21.79855434 2.7109375 26.3828125 C3.14369322 30.47837696 2.80862533 32.66067405 0.1875 36 C-0.35519531 36.721875 -0.89789063 37.44375 -1.45703125 38.1875 C-3 40 -3 40 -5 42 C-12.5386118 35.94601634 -12.5386118 35.94601634 -13.484375 31.95703125 C-13.28021554 29.48391779 -12.7378745 27.3732598 -12 25 C-11.505 23.35064453 -11.505 23.35064453 -11 21.66796875 C-8.56420606 14.27244964 -5.65198885 5.65198885 0 0 Z "
    fill="#273567"
    transform="translate(472,116)"
  />
  <path
    d="M0 0 C-1.60676453 5.45593671 -4.05030894 10.3302147 -6.625 15.375 C-7.04523438 16.20644531 -7.46546875 17.03789062 -7.8984375 17.89453125 C-8.92866075 19.93156359 -9.96258821 21.96662189 -11 24 C-16.03382098 22.3518456 -20.0260491 19.39351949 -24.3125 16.375 C-25.05306641 15.859375 -25.79363281 15.34375 -26.55664062 14.8125 C-28.37422697 13.54605274 -30.18850838 12.27514241 -32 11 C-31 9 -31 9 -28.36376953 7.94677734 C-27.21505371 7.5802002 -26.06633789 7.21362305 -24.8828125 6.8359375 C-23.63628906 6.43632812 -22.38976562 6.03671875 -21.10546875 5.625 C-20.12586182 5.31755859 -20.12586182 5.31755859 -19.12646484 5.00390625 C-17.13728614 4.37886059 -15.15249007 3.74122197 -13.16796875 3.1015625 C-3.41013088 0 -3.41013088 0 0 0 Z "
    fill="#273567"
    transform="translate(452,459)"
  />
  <path
    d="M0 0 C1.0076952 1.7664657 2.00591714 3.53833823 3 5.3125 C3.556875 6.29863281 4.11375 7.28476562 4.6875 8.30078125 C6 11 6 11 6 14 C2.54418685 15.50585523 -0.91504753 17.00368289 -4.375 18.5 C-5.35984375 18.92925781 -6.3446875 19.35851562 -7.359375 19.80078125 C-8.77089844 20.40986328 -8.77089844 20.40986328 -10.2109375 21.03125 C-11.08024902 21.40830078 -11.94956055 21.78535156 -12.84521484 22.17382812 C-15 23 -15 23 -17 23 C-17.83819158 21.37750059 -18.6704116 19.75191503 -19.5 18.125 C-19.9640625 17.22007812 -20.428125 16.31515625 -20.90625 15.3828125 C-22 13 -22 13 -22 11 C-18.7121022 9.15984502 -15.41908674 7.32904953 -12.125 5.5 C-11.18785156 4.97535156 -10.25070312 4.45070313 -9.28515625 3.91015625 C-8.38925781 3.41386719 -7.49335938 2.91757812 -6.5703125 2.40625 C-5.74289551 1.94541016 -4.91547852 1.48457031 -4.06298828 1.00976562 C-2 0 -2 0 0 0 Z "
    fill="#AB322C"
    transform="translate(346,293)"
  />
  <path
    d="M0 0 C2.0546875 1.7421875 2.0546875 1.7421875 3.875 3.875 C4.49117188 4.57367188 5.10734375 5.27234375 5.7421875 5.9921875 C6.15726562 6.65476562 6.57234375 7.31734375 7 8 C6 11 6 11 4.20581055 12.09082031 C1.70412409 13.15586085 -0.79695503 14.21798155 -3.3125 15.25 C-4.18068359 15.62640625 -5.04886719 16.0028125 -5.94335938 16.390625 C-6.78318359 16.74125 -7.62300781 17.091875 -8.48828125 17.453125 C-9.25696533 17.77442383 -10.02564941 18.09572266 -10.81762695 18.42675781 C-13.32909337 19.08644269 -14.60180334 18.95407984 -17 18 C-18.703125 15.93359375 -18.703125 15.93359375 -20.25 13.4375 C-21.03117187 12.19806641 -21.03117187 12.19806641 -21.828125 10.93359375 C-22.21484375 10.29550781 -22.6015625 9.65742188 -23 9 C-20.23464203 5.63166924 -16.48361969 4.06012468 -12.625 2.25 C-11.635 1.75693359 -11.635 1.75693359 -10.625 1.25390625 C-6.72393847 -0.58782997 -4.08391502 -1.70397834 0 0 Z "
    fill="#AB322C"
    transform="translate(380,279)"
  />
  <path
    d="M0 0 C-0.24234375 1.06734375 -0.4846875 2.1346875 -0.734375 3.234375 C-3.33920228 14.78838254 -5.71926407 26.37795202 -8 38 C-12.8770939 36.26681787 -14.54393626 34.65805193 -17 30 C-18.43881286 26.91854246 -19.18732877 24.42008807 -19 21 C-17.19136226 16.91764624 -14.73369075 13.51398694 -12 10 C-11.17435547 8.93652344 -11.17435547 8.93652344 -10.33203125 7.8515625 C-3.88844937 0 -3.88844937 0 0 0 Z "
    fill="#273567"
    transform="translate(495,145)"
  />
  <path
    d="M0 0 C-5.68422783 12.83346283 -20.43972604 22.81861769 -32 30 C-32.33 29.34 -32.66 28.68 -33 28 C-32.15511658 26.17338585 -31.22148222 24.38754632 -30.25 22.625 C-27.0974454 16.56916256 -25.3479587 10.66884831 -24 4 C-23.44014404 3.91435791 -22.88028809 3.82871582 -22.3034668 3.74047852 C-19.76438792 3.35051939 -17.22594632 2.95655484 -14.6875 2.5625 C-13.80642578 2.42779297 -12.92535156 2.29308594 -12.01757812 2.15429688 C-10.74624023 1.95610352 -10.74624023 1.95610352 -9.44921875 1.75390625 C-8.27879028 1.57323608 -8.27879028 1.57323608 -7.0847168 1.38891602 C-4.62394314 0.92984441 -2.51846904 0 0 0 Z "
    fill="#273567"
    transform="translate(471,31)"
  />
  <path
    d="M0 0 C0.83764268 1.95649397 1.66999059 3.91525556 2.5 5.875 C2.9640625 6.96554688 3.428125 8.05609375 3.90625 9.1796875 C5 12 5 12 5 14 C-5.395 17.465 -5.395 17.465 -16 21 C-20 8.375 -20 8.375 -20 5 C-17.04283593 4.16247839 -14.084087 3.33069969 -11.125 2.5 C-10.28324219 2.26152344 -9.44148437 2.02304688 -8.57421875 1.77734375 C-7.76855469 1.55175781 -6.96289062 1.32617188 -6.1328125 1.09375 C-5.01737061 0.77954102 -5.01737061 0.77954102 -3.87939453 0.45898438 C-2 0 -2 0 0 0 Z "
    fill="#AB322C"
    transform="translate(214,233)"
  />
  <path
    d="M0 0 C13.625 -0.125 13.625 -0.125 17 1 C15.28571429 18.71428571 15.28571429 18.71428571 13 21 C8.67509147 21.4652292 4.34064463 21.70500473 0 22 C0 14.74 0 7.48 0 0 Z "
    fill="#AB322C"
    transform="translate(297,313)"
  />
  <path
    d="M0 0 C4.36670004 3.74288574 8.43141441 7.31403652 12.4375 11.375 C13.30246094 12.24898438 14.16742188 13.12296875 15.05859375 14.0234375 C15.69925781 14.67570312 16.33992188 15.32796875 17 16 C13.39917608 19.78963117 9.66538991 22.89719513 5.375 25.875 C4.80265625 26.29007812 4.2303125 26.70515625 3.640625 27.1328125 C1.9609375 28.3046875 1.9609375 28.3046875 -1 30 C-1.99 29.67 -2.98 29.34 -4 29 C-2.68 19.43 -1.36 9.86 0 0 Z "
    fill="#273567"
    transform="translate(476,383)"
  />
  <path
    d="M0 0 C-0.66386719 0.90621094 -1.32773437 1.81242187 -2.01171875 2.74609375 C-6.7686175 9.29065123 -11.35539496 15.74915419 -15 23 C-19.76032891 21.55747609 -23.80506822 18.80471715 -27 15 C-27.703125 12.30078125 -27.703125 12.30078125 -28 10 C-25.50252977 8.72398669 -23.00222064 7.45413829 -20.5 6.1875 C-19.80390625 5.83107422 -19.1078125 5.47464844 -18.390625 5.10742188 C-5.03334634 -1.63305671 -5.03334634 -1.63305671 0 0 Z "
    fill="#273567"
    transform="translate(456,102)"
  />
  <path
    d="M0 0 C0.83887056 2.43572059 1.67126529 4.87333217 2.5 7.3125 C2.85771484 8.34793945 2.85771484 8.34793945 3.22265625 9.40429688 C4.23208263 12.38931489 5 14.82658914 5 18 C2.8828125 19.60546875 2.8828125 19.60546875 0.125 21.1875 C-0.77992188 21.71730469 -1.68484375 22.24710938 -2.6171875 22.79296875 C-5 24 -5 24 -7 24 C-8.17495143 21.06574629 -9.33850852 18.12710487 -10.5 15.1875 C-10.83386719 14.35412109 -11.16773438 13.52074219 -11.51171875 12.66210938 C-11.82753906 11.85966797 -12.14335937 11.05722656 -12.46875 10.23046875 C-12.76201172 9.49207764 -13.05527344 8.75368652 -13.35742188 7.99291992 C-14 6 -14 6 -14 3 C-12.23050388 2.49528803 -10.45934777 1.99639315 -8.6875 1.5 C-7.70136719 1.2215625 -6.71523438 0.943125 -5.69921875 0.65625 C-3 0 -3 0 0 0 Z "
    fill="#AB322C"
    transform="translate(406,208)"
  />
  <path
    d="M0 0 C2.48240788 2.02153891 3.95770236 4.24028263 5.6640625 6.9453125 C6.28925781 7.91339844 6.91445313 8.88148438 7.55859375 9.87890625 C8.8515625 12.5078125 8.8515625 12.5078125 7.8515625 15.5078125 C5.9609375 16.7109375 5.9609375 16.7109375 3.6015625 17.7578125 C2.83328125 18.11359375 2.065 18.469375 1.2734375 18.8359375 C-1.74045429 19.67204942 -3.20886563 19.59467449 -6.1484375 18.5078125 C-8.60546875 16.22265625 -8.60546875 16.22265625 -10.9609375 13.4453125 C-11.75113281 12.52621094 -12.54132813 11.60710937 -13.35546875 10.66015625 C-13.94714844 9.94988281 -14.53882813 9.23960937 -15.1484375 8.5078125 C-13.80063657 4.46440972 -12.07918507 4.09183092 -8.3359375 2.1953125 C-6.74845703 1.36580078 -6.74845703 1.36580078 -5.12890625 0.51953125 C-2.1484375 -0.4921875 -2.1484375 -0.4921875 0 0 Z "
    fill="#AB322C"
    transform="translate(388.1484375,181.4921875)"
  />
  <path
    d="M0 0 C3.85025879 0.60355408 6.86101159 1.76772603 10.3125 3.5625 C11.19550781 4.01753906 12.07851563 4.47257813 12.98828125 4.94140625 C13.98408203 5.46541016 13.98408203 5.46541016 15 6 C14.48680477 10.21412236 12.14372913 12.35456091 9.25 15.3125 C8.38890625 16.21613281 7.5278125 17.11976563 6.640625 18.05078125 C4 20 4 20 1.44140625 19.984375 C-1.18359927 18.92597277 -3.10123638 17.69901509 -5.3125 15.9375 C-6.00988281 15.38964844 -6.70726562 14.84179688 -7.42578125 14.27734375 C-7.94527344 13.85582031 -8.46476562 13.43429687 -9 13 C-6.38888348 8.16459904 -3.62542917 4.12896099 0 0 Z "
    fill="#AA312C"
    transform="translate(393,249)"
  />
  <path
    d="M0 0 C11.22 0 22.44 0 34 0 C30.04063989 4.61925346 27.22789937 7.89202346 22.625 11.4375 C21.31402344 12.45650391 21.31402344 12.45650391 19.9765625 13.49609375 C19.32429688 13.99238281 18.67203125 14.48867188 18 15 C14.91450197 13.60809755 12.62953021 11.95565889 10.125 9.6875 C7.62317261 7.44335146 5.10804964 5.24481286 2.5 3.125 C1.675 2.42375 0.85 1.7225 0 1 C0 0.67 0 0.34 0 0 Z "
    fill="#B4562A"
    transform="translate(278,446)"
  />
  <path
    d="M0 0 C11.52164009 3.07517084 11.52164009 3.07517084 17 5 C16.40984815 10.50808397 15.43336231 15.64878069 14 21 C12.45797384 20.54287762 10.91639786 20.08423653 9.375 19.625 C8.08722656 19.24214844 8.08722656 19.24214844 6.7734375 18.8515625 C3.83205281 17.94843312 0.91548396 16.98322773 -2 16 C-1.85890014 13.89551062 -1.71195825 11.7914123 -1.5625 9.6875 C-1.48128906 8.51574219 -1.40007812 7.34398437 -1.31640625 6.13671875 C-1 3 -1 3 0 0 Z "
    fill="#AB322C"
    transform="translate(192,200)"
  />
  <path
    d="M0 0 C4.88159325 1.62719775 8.62767824 3.40556096 12.875 6.125 C13.46796875 6.49753906 14.0609375 6.87007812 14.671875 7.25390625 C16.1181343 8.16365 17.55958046 9.08103798 19 10 C15.34854108 13.69195569 11.6227592 17.2848311 7.8125 20.8125 C7.27947266 21.31458984 6.74644531 21.81667969 6.19726562 22.33398438 C2.23198342 26 2.23198342 26 0 26 C0 17.42 0 8.84 0 0 Z "
    fill="#283567"
    transform="translate(480,238)"
  />
  <path
    d="M0 0 C5.625 3.375 5.625 3.375 8.11328125 5.69921875 C8.9012207 6.42915039 8.9012207 6.42915039 9.70507812 7.17382812 C10.23552734 7.67333984 10.76597656 8.17285156 11.3125 8.6875 C11.86228516 9.19861328 12.41207031 9.70972656 12.97851562 10.23632812 C14.3226638 11.48697034 15.661846 12.74294624 17 14 C13.6781195 17.35766377 10.30196602 20.62922011 6.8125 23.8125 C5.52279297 24.99779297 5.52279297 24.99779297 4.20703125 26.20703125 C2 28 2 28 0 28 C0 18.76 0 9.52 0 0 Z "
    fill="#273567"
    transform="translate(480,292)"
  />
  <path
    d="M0 0 C2.63832912 2.63832912 3.48501323 3.60474497 4.6875 6.875 C4.93886719 7.53242188 5.19023437 8.18984375 5.44921875 8.8671875 C6.08019541 11.31054393 6.09194879 13.48673314 6 16 C4.23494565 16.86604534 2.46271926 17.71748642 0.6875 18.5625 C-0.29863281 19.03816406 -1.28476563 19.51382813 -2.30078125 20.00390625 C-5 21 -5 21 -8 20 C-9.60546875 17.56640625 -9.60546875 17.56640625 -11.1875 14.5625 C-11.98220703 13.07943359 -11.98220703 13.07943359 -12.79296875 11.56640625 C-14 9 -14 9 -14 7 C-9.38 4.69 -4.76 2.38 0 0 Z "
    fill="#AB322C"
    transform="translate(224,171)"
  />
  <path
    d="M0 0 C0 3.96 0 7.92 0 12 C-2.03959477 12.50838564 -4.08179138 13.00633886 -6.125 13.5 C-7.26195312 13.7784375 -8.39890625 14.056875 -9.5703125 14.34375 C-13 15 -13 15 -19 15 C-19 10.71 -19 6.42 -19 2 C-16.08429832 0.54214916 -13.30440731 0.64827416 -10.0625 0.4375 C-8.81597656 0.35371094 -7.56945312 0.26992187 -6.28515625 0.18359375 C-4.19247595 0.06664253 -2.09594571 0 0 0 Z "
    fill="#AB322C"
    transform="translate(271,165)"
  />
  <path
    d="M0 0 C6.43974581 0.62320121 12.67572401 1.64008262 19 3 C18.49202991 7.3177458 17.80317221 11.03302114 16 15 C9.56025419 14.37679879 3.32427599 13.35991738 -3 12 C-2.49202991 7.6822542 -1.80317221 3.96697886 0 0 Z "
    fill="#AB322C"
    transform="translate(339,165)"
  />
  <path
    d="M0 0 C4.06026821 2.03013411 6.65457376 4.42395554 9.75 7.625 C10.25660156 8.140625 10.76320313 8.65625 11.28515625 9.1875 C12.52803902 10.45383339 13.76465276 11.7263144 15 13 C11.53092419 16.661446 8.04844095 19.51835758 3.8125 22.3125 C2.76707031 23.00988281 1.72164063 23.70726562 0.64453125 24.42578125 C-2 26 -2 26 -4 26 C-2.68 17.42 -1.36 8.84 0 0 Z "
    fill="#273668"
    transform="translate(480,341)"
  />
  <path
    d="M0 0 C0 4.62 0 9.24 0 14 C-2.81256281 14.02684312 -5.62487241 14.04676188 -8.4375 14.0625 C-9.23994141 14.07087891 -10.04238281 14.07925781 -10.86914062 14.08789062 C-12.91295221 14.0965143 -14.95683902 14.0522815 -17 14 C-18.73956658 12.26043342 -18.37190386 9.8063378 -18.5625 7.4375 C-18.64628906 6.42558594 -18.73007812 5.41367188 -18.81640625 4.37109375 C-18.87699219 3.58863281 -18.93757813 2.80617187 -19 2 C-16.39610703 1.66440045 -13.7919239 1.33143142 -11.1875 1 C-10.44951172 0.90460938 -9.71152344 0.80921875 -8.95117188 0.7109375 C-5.94569605 0.33015323 -3.03285559 0 0 0 Z "
    fill="#AA312C"
    transform="translate(314,163)"
  />
  <path
    d="M0 0 C0.66 0 1.32 0 2 0 C3.83979221 3.6217573 5.67072866 7.24791898 7.5 10.875 C8.02464844 11.90753906 8.54929687 12.94007813 9.08984375 14.00390625 C9.58613281 14.99003906 10.08242188 15.97617187 10.59375 16.9921875 C11.05458984 17.90339355 11.51542969 18.81459961 11.99023438 19.75341797 C13 22 13 22 13 24 C6.14381674 22.07443364 -0.43252132 19.7527517 -7 17 C-6.37954537 12.76677156 -4.89476441 9.47709705 -2.9375 5.6875 C-2.38964844 4.61886719 -1.84179688 3.55023438 -1.27734375 2.44921875 C-0.64505859 1.23685547 -0.64505859 1.23685547 0 0 Z "
    fill="#273568"
    transform="translate(468,430)"
  />
  <path
    d="M0 0 C2.29199177 0.14063135 4.58359186 0.28765943 6.875 0.4375 C8.15117187 0.51871094 9.42734375 0.59992188 10.7421875 0.68359375 C14 1 14 1 16 2 C15.85957123 3.64630328 15.71250671 5.29204179 15.5625 6.9375 C15.48128906 7.85402344 15.40007812 8.77054687 15.31640625 9.71484375 C15 12 15 12 14 13 C12.41924873 13.09952878 10.83387455 13.12968602 9.25 13.125 C8.38890625 13.12757813 7.5278125 13.13015625 6.640625 13.1328125 C4 13 4 13 -1 12 C-0.67 8.04 -0.34 4.08 0 0 Z "
    fill="#AA312B"
    transform="translate(296,347)"
  />
  <path
    d="M0 0 C7.26 0 14.52 0 22 0 C21 7 21 7 19.3125 8.9375 C16.2984883 10.32231619 14.30299511 10.28334517 11 10 C8.26171875 8.57421875 8.26171875 8.57421875 5.6875 6.6875 C4.82511719 6.07261719 3.96273437 5.45773438 3.07421875 4.82421875 C1 3 1 3 0 0 Z "
    fill="#A6332F"
    transform="translate(100,192)"
  />
</svg>
