<svg
  xmlns="http://www.w3.org/2000/svg"
  viewBox="0 0 240 240"
  height="240"
  width="240"
>
  <path
    d="M45.998 40.023c4.62 12.895.304 32.266 2.522 30.125l22.49-21.552-15.93.472.945 6.309c4.149-3.621 7.121-5.941 7.098-4.416-1.02 3.263-5.093 6.804-9.226 8.91 0 0-2.228-13.56-1.297-13.658 7.665-.81 23.43.58 23.43.58-24.636 24.643-30.62 27.268-27.735 27.648C65.258 76.68 85.546 89.3 120.369 119.04c-24.835 20.834-47.543 40.432-72.974 44.672 1.315 12.895.936 23.035-1.805 33.465 18.02-5.78 33.37-.462 31.228-2.68l-20.984-22.11-.309 15.038 7.09-.053c-3.621-4.148-7.124-8.225-4.416-7.098 3.263 2.387 6.568 4.71 8.674 8.833 0 0-13.664 1.862-14.094.507-1.886-5.95.473-23.027.473-23.027 25.758 24.635 29.176 29.5 28.764 26.62-.759-5.292 8.11-33.69 43.37-68.45 7.54 6.79 40.614 45.184 44.95 71.92 12.895-1.316 22.533-1.166 32.963 1.576-4.218-10.548-.462-33.37-2.68-31.229l-22.555 21.766 15.93-.473-.945-6.308c-4.149 3.621-8.225 7.124-7.098 4.416 2.387-3.263 4.71-6.568 8.832-8.674 0 0 3.09 12.66 1.735 13.09-5.952 1.886-23.028-.473-23.028-.473 24.635-25.758 28.273-28.172 25.393-27.76-5.292.759-39.935-14.578-68.45-43.37 3.636-4.385 35.406-36.356 71.92-44.95-3.014-3.715-2.25-22.434 1.577-32.963-10.548 4.218-33.37.462-31.229 2.68l20.662 23.186.631-16.561-5.993 1.655c3.621 4.148 5.704 7.752 2.997 6.624-3.264-2.386-6.016-4.788-8.122-8.91 0 0 12.764-3.54 12.932-2.13.624 5.242.08 22.87.08 22.87-3.368 3.354-27.45-27.904-27.603-24.998-.66 12.547-16.47 39.462-43.37 68.45-22.839-25.087-41.085-48.61-43.055-72.034-12.672.2-25.098-.174-35.863-2.135m27.547 16.01c1.09 1.934 2.233 3.33 3.123 7.25l-8.81-1.785zm103.332 3.744c2.588 1.548 4.363 3.583 5.465 6.022l-10.149 3.123zM66.631 62.95c1.596 2.268 2.082 4.535 1.896 6.803L61.5 67.744Zm9.59 2.117c1.312 2.1 2.408 4.288 2.677 6.805l-8.14-1.674zm6.58 5.354c1.576 3.108 2.802 6.275 3.123 9.592-2.932-.295-5.862-.609-8.588-2.342zm42.316 46.848h.014c1.108 0 2.006.85 2.006 1.896-.001 1.046-.899 1.894-2.006 1.895-1.108 0-2.007-.848-2.008-1.895 0-1.042.89-1.89 1.994-1.896m55.235 45.578 9.857 4.652-4.574 6.309zm-100.834.203-.559 10.26-8.588-8.03c2.728-1.703 5.824-2.309 9.147-2.23m-10.819 2.119-.111 10.594-7.473-7.584c1.69-1.842 4.413-2.65 7.584-3.01m100.77 5.957 11.83 5.283-6.389 6.703zm-92.182 3.076c.798 3.26-.17 6.166-.781 9.145l-6.58-6.692c1.569-1.171 4.318-1.871 7.361-2.453"
    style="
      fill: #b2141c;
      fill-opacity: 1;
      stroke: none;
      stroke-width: 1px;
      stroke-linecap: butt;
      stroke-linejoin: miter;
      stroke-opacity: 1;
    "
  />
  <path
    style="
      fill: #b2141c;
      stroke: none;
      stroke-width: 1px;
      stroke-linecap: butt;
      stroke-linejoin: miter;
      stroke-opacity: 1;
      fill-opacity: 1;
    "
    d="m208.475 89.877 4.416 17.191-9.227-10.332c.385 6.452 1.879 12.765 3.941 19.006l19.243-7.254c-5.471-6.857-11.641-13.015-18.373-18.611m-19.397 2.71c-6.857 5.472-13.015 11.642-18.611 18.374l17.191-4.416-10.332 9.226c6.451-.384 12.765-1.878 19.006-3.94zm10.8 13.14c-.836 4.627-.217 8.67 1.024 12.46l5.442-2.208zm-3.31 7.365-10.252 6.465c4.628.836 8.67.217 12.461-1.024zm12.385 5.717c-2.647.086-5.115.618-7.484 1.394l2.209 5.442 10.252-6.465a23.5 23.5 0 0 0-4.977-.371m-9.832 1.609-5.441 2.209 6.465 10.252c.836-4.628.217-8.67-1.024-12.461m-6.703 2.445-19.242 7.254c5.47 6.858 11.64 13.015 18.373 18.612l-4.416-17.192 9.226 10.332c-.384-6.451-1.878-12.764-3.941-19.006m30.502.102c-6.451.384-12.764 1.879-19.006 3.941l7.254 19.242c6.858-5.47 13.015-11.64 18.611-18.373l-17.191 4.416zm-23.57 23.131-5.8 6.414 5.8 6.021c2.145-1.858 5.759-4.247 5.576-6.19-.232-2.453-3.066-4.544-5.576-6.245m1.394 4.517c.758 2.962-.629 4.026-3.736 3.569l.222-3.512zm31.301-37.646-6.23 5.992c2.444 2.083 4.689 6.375 7.609 4.377l3.707-3.272c2.191-1.594-.988-4.927-5.086-7.097m-2.21 4.06 4.102.078c.397 2.84-.689 4.375-3.865 4.063zm-29.847-36.236-5.955 5.678c3.55 6.45 7.414 6.536 11.594.158zm-1.695 4.18 3.43.039c.475 2.867-1.356 3.43-3.471 3.707zm-31.23 28.617-6.245 6.3c4.286 6.398 8.285 5.946 12.045-.167zm-2.127 4.623h3.863c-.57 3.979-2.283 3.517-3.746 4.021zm-16.163-7.468-7.36 12.212 15.278-.167c-1.482-3.91-4.882-7.994-7.918-12.045m-24.089 23.198s-4.77 7.513-7.44 12.24c-.669 1.185 4.76-.13 3.963.971-11.41 15.75-14.292 12.522-10.094 18.532-3.517 4.125-4.268 6.919 1.735 11.277-6.387 5.72-2.36 10.082 3.865 15.771l-18.77 20.032c1.573 4.575 4.509 5.97 7.965 6.15 4.47-1.422 12.757-12.065 19.479-18.926 0 0 17.313 17.537 19.765 19.774 1.148 1.046 7.103-4.707 6.545-6.545l-19.32-22.729c3.859-5.085 12.849-10.646 4.953-13.261 7.092-6.2 6.159-7.471.91-13.672 7.731-6.914-12.597-16.393-8.595-16.403 1.527-.004 2.534-.302 2.703-1.082.232-1.072-1.063-2.952-7.664-12.129m1.306 14.32c.368.008.744.211 1.131.626l9.149 9.463c1.465 1.246 1.346 2.724-.237 4.416l-4.021 5.047c-2.109 2.023-4.211-.39-2.84-2.051l2.129-2.602c2.303-2.926 1.179-3.747.316-4.73l-4.101-4.18c-1.534-1.462-3.035-1.586-4.495 0l-4.337 4.494c-.912 1.073-2.053 2.116-.159 3.549l16.325 16.324c1.879 1.723 2.131 1.944.433 3.903-5.525 6.415-19.162 23.783-28.666 32.292-1.075 1.608-4.246.105-3.232-3.232l26.418-27.996c1.206-1.005 1.693-2.09.236-3.39l-16.56-15.22c-1.221-1.393-1.07-2.786.236-4.18l11.2-11.985c.349-.366.707-.555 1.075-.547m-6.535 26.167c1.194.05 2.66 1.348 1.535 2.908l-3.91 4.951c1.425 1.434 2.592 2.665 3.719 5.094-.198 1.11-.759 1.856-2.006 1.916l-6.469-7.127 6.133-7.34c.231-.297.6-.419.998-.402m10.08 19.4 18.625 19.461c.272 1.584-.439 2.432-1.951 2.678-10.907-9.108-18.699-19.455-18.234-20.242z"
  />
  <path
    style="
      fill: #b2141c;
      stroke: none;
      stroke-width: 1px;
      stroke-linecap: butt;
      stroke-linejoin: miter;
      stroke-opacity: 1;
      fill-opacity: 1;
    "
    d="M125.576 202.75c16.961 16.952 14.34 13.273-.111 30.782-12.828-18.67-16.191-11.11.111-30.781m22.955-25.278c-1.244-.398-2.519 6.084 3.313 7.728 1.757-.969.475-4.42-3.313-7.728m6.065.111a.4.4 0 0 0-.149.047c-1.443.824 1.472 7.862 4.653 8.24 3.081.366-2.82-8.483-4.504-8.287m-10.047 3.32c-1.578 2.185.385 5.124 2.72 8.043 1.413-.055 2.853-.072 2.524-2.484zm9.898 4.022-3.312 3.746c-.583.778-1.34 1.48.236 3.193l4.06 4.258 3.077-2.996c1.03-2.258.484-2.705.078-3.313zm-13.988.03a.43.43 0 0 0-.246.087c-.634.768 3.245 7.738 5.441 6.861.994-2.25-3.73-7.057-5.195-6.949m-2.18 3.48c-2.148 1.849.189 4.41 2.801 7.017 1.996.545 2.14-.6 1.734-2.248-1.022-1.8-2.797-3.276-4.535-4.77m10.686 2.562-4.967 5.125c-.991.888-1.576 1.85-.277 3.154l4.26 4.733 6.11-6.033zm-47.434-12.932c-1.247.803-3.017 1.634-1.103 3.707l3.232 3.786c1.397 1.467 3.651-.482 2.367-1.932zm-2.996 2.88c-1.385 1.143-3.072 2.645-1.38 5.283l3.47 4.101 1.97-1.695c1.266-1.267.522-2.006-.156-2.762zm-4.13 4.41c-5.698 5.132-6.067 5.293-1.616 10.175 5.357-3.84 7.047-6.322 1.615-10.175m13.29 1.304c-.456 0-.987.179-1.552.62l-3.485 3.429c-1.435 1.5 1.16 3.182 2.649 1.951l3.457-3.318c1.002-1.06.3-2.68-1.069-2.682m3.051 3.625q-.259 0-.56.06l-3.875 3.932c-3.347.325.346 2.162 2.257 1.897l1.952-1.758c1.862-3.021 1.434-4.123.226-4.13m-11.266 1.54-3.402 3.79c-1.692 1.511-1.364 2.764-.168 3.905l2.79 3.289c.83.694 2.261 1.613 3.456.279l2.12-2.287c1.99-2.006 1.043-2.991-.057-4.238zm2.486-80.869s-7.767 12.854-7.53 12.776c.236-.08 15.14-.237 15.14-.237-.769-4.533-4.298-8.514-7.61-12.539m-65.218-8.464v4.405l4.852-.112c-.088-2.113.923-5.054-4.852-4.293m7.305.502 4.753-.033-.013 4.047c-3.222.227-5.1-.19-4.74-4.014"
  />
  <path
    style="
      fill: #b2141c;
      stroke: none;
      stroke-width: 1px;
      stroke-linecap: butt;
      stroke-linejoin: miter;
      stroke-opacity: 1;
      fill-opacity: 1;
    "
    d="M31.844 102.818c-.898.035-1.13.552-1.078 4.428v8.293c.129 1.245-.44 1.964-2.05 1.897h-4.962c-1.443-.117-2.368.395-2.342 2.062l.111 12.379c.307 2.665-.687 1.897-1.728 1.004l-5.402-4.656-2.88 2.72 29.376 27.838c2.106 2.16 3.896 1.575 5.558-.117l29.557-28.572-3.012-2.9-6.412 6.077c-1.953 1.535-1.949-.095-1.896-1.785v-11.43c.2-2.813-.935-3.25-2.844-3.18h-5.186c-1.135.016-1.081-1.009-1.058-2.007l.082-9.478c-.02-1.39.206-2.705-2.035-2.565h-2.508l-.057 2.844c-.1 1.584-.736 2.802-1.951 3.568h-3.18c-1.143 0-1.743.211-1.617 2.063v35.353c-.022 1.174.74 2.608 1.451 2.51h2.844l-5.186 6.356-6.357-6.356h3.457c.932.026 1.608-.408 1.506-2.008l-.252-37.918h-4.768c-2.103.122-2.489-.802-2.564-2.342v-1.56c-.142-1.65-.563-2.544-1.283-2.512h-.907q-.234-.01-.427-.006m2.06 22.034h5.8c-.069 1.372-.402 2.6-1.618 3.345h-1.617c-2.34-.95-1.927-2.206-2.565-3.345m11.655.054h5.52c-.064 1.287-.908 2.25-2.231 3.012l-3.123.111c-.533.182-.71-2.752-.166-3.123m-8.086 5.856c1.23.999 2.513 1.985 2.62 3.29l-6.636.055c-2.271-1.002-1.998-2.132-2.285-3.234zm16.597.105c.64.055.519.656-2.21 3.13l-5.745-.056c-1.22.043-1.137-2.874-.334-3.068h7.973c.117-.01.225-.014.316-.006m-25.129 6.977h10.762l.277 2.453c-.127 1.337-.875 1.821-1.84 2.008l-5.853.056c-2.562-1.55-2.867-3.032-3.346-4.517m27.403.054c.61.155-.383 1.438-3.37 4.127l-6.859-.11c-1.111.032-.89-3.71-.111-3.737l9.98-.278a1 1 0 0 1 .36-.002m20.346-14.68c-.659-.356-1.488 1.593-.906 2.72l1.34 1.026c1.814 1.005 2.787-.75 2.209-1.499zm2.603-1.774c.878.85 1.443 1.788 2.997 2.444 1.196-.433 1.742-1.517 2.445-2.444.293-1.153-.542-1.855-1.262-2.603l-1.735-1.656-1.577 1.617c-.376.718-1.245.511-.868 2.642M4.574 116.87l-3.076 3.312c-.4.474-.706.965.063 1.658l2.399 2.26c.701.72 1.25.529 1.729-.084l2.007-1.84c.49-.732.683-1.481-.083-2.286zm4.459 8.12s-1.133.768-1.003 1.339.027 2.185 1.45 2.175c1.054-.008 1.305-.474 1.7-1.088.691-2 .138-2.693-.641-3.15-.503-.204-1.004-.708-1.506.725m7.054-28.467-8.28 12.539c-.561.928 1.05 2.426 2.169 1.222l3.706-5.047c.815-1.098 2.024-1.272 2.681.079l2.879 5.402 3.233-.04c-1.406-4.83-3.616-9.535-6.388-14.155"
  />
  <path
    style="
      fill: #b2141c;
      stroke: none;
      stroke-width: 1px;
      stroke-linecap: butt;
      stroke-linejoin: miter;
      stroke-opacity: 1;
      fill-opacity: 1;
    "
    d="M14.628 107.959c-.815 1.188-1.133 2.802-2.602 3.43.868.971 1.72 1.99 2.484 3.273l1.262-1.065c.376-3.545-.53-4.272-1.144-5.638M42.937 77.62l-9.703 15.391c2.952.421 5.61-2.98 8.253-6.58 1.44-2.187 1.92-.541 2.677 0 5.21 7.217 6.485 6.342 8.03 6.023z"
  />
  <path
    d="M42.807 88.796c-1.016 1.39-1.334 3.122-3.165 3.858 1.437 1.689 1.868 2.723 3.097 3.83l1.849-1.127c1.258-3.875.247-4.33-1.78-6.561"
    style="
      fill: #b2141c;
      fill-opacity: 1;
      stroke: none;
      stroke-width: 1.20809px;
      stroke-linecap: butt;
      stroke-linejoin: miter;
      stroke-opacity: 1;
    "
  />
  <path
    style="
      fill: #b2141c;
      stroke: none;
      stroke-width: 1px;
      stroke-linecap: butt;
      stroke-linejoin: miter;
      stroke-opacity: 1;
      fill-opacity: 1;
    "
    d="m69.79 95.814-5.677 13.17c-.817 1.053-1.066 1.351-1.262 1.577 1.912.782 4.03-.499 6.466-4.968.852-1.5.583-2.128 2.406.118 2.148 2.063 3.751 5.354 7.058 4.81z"
  />
  <path
    style="
      fill: #b2141c;
      stroke: none;
      stroke-width: 1px;
      stroke-linecap: butt;
      stroke-linejoin: miter;
      stroke-opacity: 1;
      fill-opacity: 1;
    "
    d="M70.483 108.206c-1.505.38-.925 6.967.14 6.97s1.365-7.35-.14-6.97M125.8 87.435c-2.898 4.043-5.843 8.08-7.584 12.268l15.613.223c-1.376-4.721-4.605-8.648-8.03-12.491m-.056-19.795c-1.73 2.477-2.767 4.33-5.855 8.03 1.358 3.392 3.698 5.662 5.855 8.14 3.707-3.124 5.547-5.536 6.134-7.472-1.454-3.254-4.014-5.844-6.134-8.699m-.501-9.423-6.301 4.572c1.748 2.113 4.022 3.202 6.468 3.96 2.725-.983 4.952-2.318 6.747-3.96-1.011-2.42-4.03-3.45-6.914-4.572m-3.458-1.673c-1.958-2.25-5.37-3.472-9.033-4.517l-14.944 4.796 15.836 3.903c3.205-.413 5.827-1.989 8.141-4.182m12.491-4.684c-1.542.935-3.81 2.354-6.691 4.182 1.267 1.487 3.638 2.974 5.91 4.46 8.076-.118 12.873-1.937 18.235-4.181-7.51-1.197-7.247-2.853-17.454-4.461m-8.81-5.744c-2.25.803-4.498 2.172-6.748 4.015 1.927 1.849 3.611 3.905 6.525 4.907 3.182-1.47 5.241-3.022 7.304-4.572-2.03-2.112-4.637-3.067-7.081-4.35"
  />
  <path
    style="
      fill: #b2141c;
      stroke: none;
      stroke-width: 1px;
      stroke-linecap: butt;
      stroke-linejoin: miter;
      stroke-opacity: 1;
      fill-opacity: 1;
    "
    d="M82.881 43.61c9.41-2.682 18.566-5.576 29.178-7.256 5.09 1.205 8.824 3.538 12.697 5.757l1.813.079c4.558-3.443 8.14-5.028 11.356-5.915 10.394 1.333 20.1 4.27 29.888 7.019-9.963 2.617-19.925 5.31-29.888 6.703-2.968-.892-6.88-2.914-10.882-5.047h-2.287c-2.353 1.103-3.594 1.174-8.675 4.81-12.38-.549-22.158-4.072-33.2-6.15M98.259 29.1c5.163-2.42 10.451-5.273 15.22-6.31 4.908 1.587 7.217 3.463 10.015 5.284l4.022-.079 7.413-4.731c5.27-1.316 12.08 3.53 18.295 5.993-1.447 1.251-7.414 3.407-15.141 5.914l-11.356-5.362-2.444.158c-3.372 2.016-6.78 4.011-11.593 5.204-6.053-1.558-9.943-3.927-14.431-6.072"
  />
  <path
    style="
      fill: #b2141c;
      stroke: none;
      stroke-width: 1px;
      stroke-linecap: butt;
      stroke-linejoin: miter;
      stroke-opacity: 1;
      fill-opacity: 1;
    "
    d="M124.992 30.913 119 34.698l5.441 5.047c1.356.875 2.457-.503 3.628-1.262l3.075-2.444c2.643-1.99-4.013-3.423-6.15-5.126m.393-21.529c5.75 5.178 7.574 6.92.315 14.51-6.487-7.113-5.198-7.214-.315-14.51"
  />
</svg>
